<svg width="535" height="101" viewBox="0 0 535 101" fill="none" xmlns="http://www.w3.org/2000/svg">
<path fill-rule="evenodd" clip-rule="evenodd" d="M40.088 7.088V57.528C40.088 63.2544 38.3146 67.9437 34.7003 71.4898L34.6934 71.4966C31.0816 74.9721 26.336 76.672 20.56 76.672C14.7181 76.672 9.9367 74.9387 6.32366 71.3938L6.31687 71.3871C2.6985 67.7687 0.936005 62.8847 0.936005 56.856V55.856H11.6526L11.6718 56.8364C11.7326 59.9359 12.5179 62.3636 13.95 64.2007C15.3797 65.9556 17.523 66.896 20.56 66.896C23.6207 66.896 25.727 66.0046 27.0826 64.382C28.5111 62.6075 29.256 60.3472 29.256 57.528V7.088H40.088ZM27.856 65.016C26.256 66.936 23.824 67.896 20.56 67.896C17.296 67.896 14.832 66.872 13.168 64.824C11.568 62.776 10.736 60.12 10.672 56.856H1.936C1.936 57.1934 1.9417 57.5268 1.95308 57.856C2.13821 63.2099 3.82852 67.4845 7.024 70.68C10.416 74.008 14.928 75.672 20.56 75.672C26.128 75.672 30.608 74.04 34 70.776C37.392 67.448 39.088 63.032 39.088 57.528V8.088H30.256V57.528C30.256 60.536 29.456 63.032 27.856 65.016ZM65.3166 73.3782L65.3107 73.3748C61.1785 71.0421 57.9133 67.7402 55.5227 63.4903L55.5182 63.4822L55.5138 63.4741C53.1842 59.1477 52.0343 54.1802 52.0343 48.6C52.0343 43.0773 53.219 38.1678 55.6187 33.9017L55.6212 33.8973C58.0764 29.584 61.4079 26.2799 65.6098 24.011C69.8011 21.6836 74.4808 20.528 79.6263 20.528C84.7717 20.528 89.4514 21.6836 93.6427 24.011C97.8413 26.2782 101.142 29.5487 103.535 33.8007C106.001 38.0692 107.218 43.0132 107.218 48.6C107.218 54.193 105.967 59.1708 103.435 63.5023C100.977 67.7538 97.6125 71.0526 93.3541 73.3814C89.1008 75.7074 84.39 76.864 79.2423 76.864C74.1563 76.864 69.5073 75.7063 65.3166 73.3782ZM102.57 63C105.002 58.84 106.218 54.04 106.218 48.6C106.218 43.16 105.034 38.392 102.666 34.296C100.362 30.2 97.1943 27.064 93.1623 24.888C89.1303 22.648 84.6183 21.528 79.6263 21.528C74.6343 21.528 70.1223 22.648 66.0903 24.888C62.0583 27.064 58.8583 30.232 56.4903 34.392C54.1863 38.488 53.0343 43.224 53.0343 48.6C53.0343 54.04 54.1543 58.84 56.3943 63C58.6983 67.096 61.8343 70.264 65.8023 72.504C69.8343 74.744 74.3143 75.864 79.2423 75.864C84.2343 75.864 88.7783 74.744 92.8743 72.504C96.9703 70.264 100.202 67.096 102.57 63ZM93.8317 58.8528L93.8358 58.8458C95.4547 56.0878 96.2903 52.688 96.2903 48.6C96.2903 44.5061 95.4842 41.1009 93.9237 38.3401C92.3432 35.5439 90.3005 33.5144 87.8023 32.2058L87.7941 32.2015L87.7859 32.1971C85.2487 30.8077 82.5024 30.112 79.5303 30.112C76.4905 30.112 73.7127 30.8093 71.1786 32.1971L71.1711 32.2012C68.7397 33.5058 66.7599 35.5306 65.2409 38.3255C63.7387 41.0896 62.9623 44.5002 62.9623 48.6C62.9623 52.7688 63.7086 56.2137 65.1491 58.9782C66.6674 61.769 68.648 63.827 71.0833 65.1953C73.552 66.5182 76.2655 67.184 79.2423 67.184C82.2145 67.184 84.9964 66.4882 87.6026 65.0942C90.1734 63.7191 92.2489 61.6532 93.8277 58.8599L93.8317 58.8528ZM70.6023 66.072C67.9783 64.6 65.8663 62.392 64.2663 59.448C62.7303 56.504 61.9623 52.888 61.9623 48.6C61.9623 44.376 62.7623 40.792 64.3623 37.848C65.9623 34.904 68.0743 32.728 70.6983 31.32C73.3863 29.848 76.3303 29.112 79.5303 29.112C82.6663 29.112 85.5783 29.848 88.2663 31.32C90.9543 32.728 93.1303 34.904 94.7943 37.848C96.4583 40.792 97.2903 44.376 97.2903 48.6C97.2903 52.824 96.4263 56.408 94.6983 59.352C93.0343 62.296 90.8263 64.504 88.0743 65.976C85.3223 67.448 82.3783 68.184 79.2423 68.184C76.1063 68.184 73.2263 67.48 70.6023 66.072ZM143.089 66.608V76H134.217C129.218 76 125.282 74.8507 122.595 72.3755C119.868 69.8635 118.625 65.848 118.625 60.6V30.592H111.809V21.392H118.625V8.144H129.361V21.392H143.089V30.592H129.361V60.6C129.361 63.0505 129.886 64.543 130.689 65.3541C131.494 66.103 133.051 66.608 135.656 66.608H143.089ZM129.993 66.072C128.904 64.984 128.361 63.16 128.361 60.6V29.592H142.089V22.392H128.361V9.144H119.625V22.392H112.809V29.592H119.625V60.6C119.625 65.72 120.841 69.4 123.273 71.64C125.705 73.88 129.353 75 134.217 75H142.089V67.608H135.656C132.969 67.608 131.081 67.096 129.993 66.072ZM162.409 21.392V76H151.673V21.392H162.409ZM157.185 14.848C155.262 14.848 153.598 14.1711 152.254 12.8271C150.91 11.4831 150.233 9.81886 150.233 7.896C150.233 5.97314 150.91 4.30888 152.254 2.96489C153.598 1.62091 155.262 0.944 157.185 0.944C159.052 0.944 160.657 1.62757 161.934 2.97477C163.272 4.31703 163.945 5.97784 163.945 7.896C163.945 9.81411 163.272 11.4749 161.934 12.8172C160.657 14.1644 159.052 14.848 157.185 14.848ZM184.716 24.0279L184.722 24.0242C188.723 21.6904 193.155 20.528 197.994 20.528C202.749 20.528 206.929 21.5528 210.499 23.6408C212.943 25.0703 214.975 26.7677 216.578 28.7366V21.392H227.41V76H216.578V68.45C214.922 70.492 212.829 72.2569 210.312 73.7483L210.307 73.7512C206.739 75.838 202.592 76.864 197.898 76.864C193.053 76.864 188.647 75.6668 184.705 73.2616C180.765 70.8573 177.667 67.486 175.412 63.1755C173.152 58.8546 172.034 53.956 172.034 48.504C172.034 42.9925 173.15 38.1211 175.416 33.9206C177.673 29.6732 180.774 26.3665 184.716 24.0279ZM216.578 66.7929C214.905 69.1712 212.646 71.2029 209.802 72.888C206.41 74.872 202.442 75.864 197.898 75.864C193.226 75.864 189.002 74.712 185.226 72.408C181.45 70.104 178.474 66.872 176.298 62.712C174.122 58.552 173.034 53.816 173.034 48.504C173.034 43.128 174.122 38.424 176.298 34.392C178.474 30.296 181.45 27.128 185.226 24.888C189.066 22.648 193.322 21.528 197.994 21.528C202.602 21.528 206.602 22.52 209.994 24.504C212.766 26.125 214.96 28.0879 216.578 30.3925C216.94 30.9086 217.274 31.4417 217.578 31.992V22.392H226.41V75H217.578V65.208C217.272 65.7524 216.939 66.2807 216.578 66.7929ZM208.151 32.3784L208.139 32.3713C205.612 30.8675 202.814 30.112 199.722 30.112C196.622 30.112 193.819 30.8393 191.29 32.2842C188.777 33.7205 186.76 35.8188 185.241 38.6135C183.734 41.3861 182.962 44.6721 182.962 48.504C182.962 52.4003 183.734 55.752 185.243 58.5901C186.762 61.3833 188.78 63.5157 191.298 65.0163C193.825 66.4582 196.626 67.184 199.722 67.184C202.821 67.184 205.623 66.4573 208.151 65.0136C210.733 63.5114 212.781 61.379 214.298 58.5901C215.807 55.7498 216.578 52.4294 216.578 48.6C216.578 44.7681 215.806 41.4821 214.3 38.7095C212.784 35.9208 210.739 33.8231 208.163 32.3852L208.151 32.3784ZM208.65 65.88C205.962 67.416 202.986 68.184 199.722 68.184C196.458 68.184 193.482 67.416 190.794 65.88C188.106 64.28 185.962 62.008 184.362 59.064C182.762 56.056 181.962 52.536 181.962 48.504C181.962 44.536 182.762 41.08 184.362 38.136C185.962 35.192 188.106 32.952 190.794 31.416C193.482 29.88 196.458 29.112 199.722 29.112C202.986 29.112 205.962 29.912 208.65 31.512C211.402 33.048 213.578 35.288 215.178 38.232C216.778 41.176 217.578 44.632 217.578 48.6C217.578 52.568 216.778 56.056 215.178 59.064C213.578 62.008 211.402 64.28 208.65 65.88ZM250.075 74.2801L250.065 74.2755C246.473 72.6123 243.61 70.3326 241.514 67.4248L241.508 67.416C239.401 64.4263 238.321 60.9972 238.253 57.1615L238.236 56.144H249.468L249.56 57.0425C249.856 59.942 251.028 62.3759 253.091 64.3844C255.149 66.2647 258.196 67.28 262.389 67.28C266.389 67.28 269.393 66.2971 271.527 64.4516C273.736 62.5327 274.829 60.1221 274.829 57.144C274.829 54.7758 274.183 52.9469 272.967 51.5646C271.67 50.0915 270.045 48.9641 268.071 48.1864C266.009 47.3743 263.203 46.4898 259.637 45.5345C255.198 44.3764 251.594 43.2101 248.843 42.0311L248.835 42.0277C246.049 40.8045 243.649 38.9055 241.636 36.3556L241.627 36.3443L241.619 36.3327C239.597 33.6143 238.637 30.0551 238.637 25.752C238.637 21.9251 239.614 18.4984 241.586 15.5057C243.554 12.5206 246.296 10.2271 249.778 8.62004L249.785 8.61702C253.326 7.01328 257.343 6.224 261.813 6.224C268.253 6.224 273.606 7.83609 277.789 11.1404C282.041 14.4483 284.446 18.8599 284.984 24.3097L285.093 25.408H273.506L273.397 24.532C273.115 22.274 271.934 20.2537 269.727 18.4648L269.721 18.4597L269.715 18.4545C267.57 16.6577 264.682 15.712 260.949 15.712C257.483 15.712 254.749 16.6205 252.661 18.3602L252.655 18.3655L252.649 18.3708C250.617 20.0077 249.565 22.3247 249.565 25.464C249.565 27.6978 250.176 29.43 251.326 30.749C252.628 32.1663 254.195 33.2625 256.038 34.0384C258.046 34.7903 260.856 35.675 264.482 36.6928C268.918 37.9144 272.521 39.1448 275.273 40.3889C278.124 41.613 280.557 43.5462 282.57 46.1619C284.67 48.8243 285.661 52.3951 285.661 56.76C285.661 60.2107 284.745 63.4598 282.927 66.4905C281.092 69.5483 278.386 72.0033 274.856 73.8682C271.294 75.7501 267.128 76.672 262.389 76.672C257.856 76.672 253.749 75.8832 250.085 74.2845L250.075 74.2801ZM281.781 46.776C279.861 44.28 277.557 42.456 274.869 41.304C272.181 40.088 268.629 38.872 264.213 37.656C260.565 36.632 257.717 35.736 255.669 34.968C253.685 34.136 251.989 32.952 250.581 31.416C249.237 29.88 248.565 27.896 248.565 25.464C248.565 22.072 249.717 19.448 252.021 17.592C254.325 15.672 257.301 14.712 260.949 14.712C264.853 14.712 267.989 15.704 270.357 17.688C272.725 19.608 274.069 21.848 274.389 24.408H283.989C283.956 24.0703 283.915 23.737 283.867 23.408C283.174 18.6864 280.943 14.8597 277.173 11.928C273.205 8.792 268.085 7.224 261.813 7.224C257.461 7.224 253.589 7.992 250.197 9.528C246.869 11.064 244.277 13.24 242.421 16.056C240.565 18.872 239.637 22.104 239.637 25.752C239.637 29.912 240.565 33.24 242.421 35.736C244.341 38.168 246.613 39.96 249.237 41.112C251.925 42.264 255.477 43.416 259.893 44.568C263.477 45.528 266.325 46.424 268.437 47.256C270.549 48.088 272.309 49.304 273.717 50.904C275.125 52.504 275.829 54.584 275.829 57.144C275.829 60.408 274.613 63.096 272.181 65.208C269.813 67.256 266.549 68.28 262.389 68.28C258.037 68.28 254.709 67.224 252.405 65.112C250.165 62.936 248.885 60.28 248.565 57.144H239.253C239.259 57.4809 239.273 57.8142 239.296 58.144C239.515 61.3854 240.524 64.284 242.325 66.84C244.309 69.592 247.029 71.768 250.485 73.368C254.005 74.904 257.973 75.672 262.389 75.672C266.997 75.672 270.997 74.776 274.389 72.984C277.781 71.192 280.341 68.856 282.069 65.976C283.797 63.096 284.661 60.024 284.661 56.76C284.661 52.536 283.701 49.208 281.781 46.776ZM313.522 73.7498L313.512 73.7441C311.022 72.2404 308.931 70.4764 307.253 68.4489V100.96H296.517V21.392H307.253V28.8929C308.894 26.9 310.956 25.1828 313.426 23.7383C317.055 21.5883 321.235 20.528 325.933 20.528C330.772 20.528 335.173 21.69 339.113 24.0268C343.118 26.3638 346.252 29.6694 348.51 33.9188C350.777 38.1197 351.893 42.9917 351.893 48.504C351.893 53.956 350.775 58.8546 348.515 63.1755C346.258 67.4896 343.126 70.8611 339.121 73.2644C335.181 75.6678 330.776 76.864 325.933 76.864C321.3 76.864 317.157 75.8366 313.531 73.7553L313.522 73.7498ZM338.605 24.888C334.829 22.648 330.605 21.528 325.933 21.528C321.389 21.528 317.389 22.552 313.933 24.6C311.144 26.2315 308.917 28.2091 307.253 30.533C306.893 31.0351 306.56 31.5535 306.253 32.088V22.392H297.517V99.96H306.253V65.304C306.562 65.8235 306.896 66.3286 307.253 66.8195C308.964 69.1708 311.223 71.1937 314.029 72.888C317.485 74.872 321.453 75.864 325.933 75.864C330.605 75.864 334.829 74.712 338.605 72.408C342.445 70.104 345.453 66.872 347.629 62.712C349.805 58.552 350.893 53.816 350.893 48.504C350.893 43.128 349.805 38.424 347.629 34.392C345.453 30.296 342.445 27.128 338.605 24.888ZM332.55 32.2892L332.541 32.2843C330.012 30.8393 327.209 30.112 324.109 30.112C321.085 30.112 318.282 30.8657 315.684 32.3765L315.677 32.3803C313.166 33.8153 311.114 35.9455 309.529 38.8106C308.023 41.5844 307.253 44.8374 307.253 48.6C307.253 52.4261 308.022 55.7441 309.53 58.5828C311.112 61.3781 313.163 63.5121 315.68 65.0135C318.278 66.4605 321.082 67.184 324.109 67.184C327.208 67.184 330.01 66.4571 332.538 65.0131C335.121 63.5109 337.168 61.3787 338.684 58.5901C340.193 55.752 340.965 52.4003 340.965 48.504C340.965 44.6721 340.193 41.3861 338.686 38.6135C337.171 35.8248 335.126 33.7271 332.55 32.2892ZM339.565 59.064C337.965 62.008 335.789 64.28 333.037 65.88C330.349 67.416 327.373 68.184 324.109 68.184C320.909 68.184 317.933 67.416 315.181 65.88C312.493 64.28 310.317 62.008 308.653 59.064C307.053 56.056 306.253 52.568 306.253 48.6C306.253 44.696 307.053 41.272 308.653 38.328C310.317 35.32 312.493 33.048 315.181 31.512C317.933 29.912 320.909 29.112 324.109 29.112C327.373 29.112 330.349 29.88 333.037 31.416C335.789 32.952 337.965 35.192 339.565 38.136C341.165 41.08 341.965 44.536 341.965 48.504C341.965 52.536 341.165 56.056 339.565 59.064ZM370.81 24.0279L370.816 24.0242C374.817 21.6904 379.248 20.528 384.088 20.528C388.843 20.528 393.023 21.5528 396.593 23.6408C399.037 25.0703 401.068 26.7677 402.672 28.7366V21.392H413.504V76H402.672V68.45C401.016 70.492 398.923 72.2569 396.406 73.7483L396.401 73.7512C392.833 75.838 388.685 76.864 383.992 76.864C379.147 76.864 374.741 75.6668 370.799 73.2616C366.859 70.8573 363.761 67.486 361.506 63.1755C359.246 58.8546 358.128 53.956 358.128 48.504C358.128 42.9934 359.244 38.1226 361.509 33.9225C361.51 33.9207 361.511 33.9189 361.512 33.9171L362.392 34.392L361.509 33.9225C361.509 33.9223 361.509 33.9226 361.509 33.9225C363.766 29.6741 366.867 26.3669 370.81 24.0279ZM402.672 30.3925C403.034 30.9086 403.368 31.4417 403.672 31.992ZM402.672 66.7929C403.032 66.2807 403.366 65.7524 403.672 65.208V75H412.504V22.392H403.672V31.992M402.672 66.7929C400.998 69.1712 398.74 71.2029 395.896 72.888ZM394.244 32.3784L394.233 32.3713C391.706 30.8675 388.908 30.112 385.816 30.112C382.716 30.112 379.913 30.8393 377.384 32.2842C374.871 33.7205 372.853 35.8188 371.335 38.6135C369.828 41.3861 369.056 44.6721 369.056 48.504C369.056 52.4003 369.828 55.752 371.337 58.5901C372.855 61.383 374.874 63.5153 377.391 65.0159C379.918 66.4581 382.719 67.184 385.816 67.184C388.915 67.184 391.717 66.4571 394.245 65.0131C396.828 63.5109 398.875 61.3787 400.391 58.5901C401.901 55.7498 402.672 52.4294 402.672 48.6C402.672 44.7681 401.9 41.4821 400.393 38.7095C398.878 35.9208 396.833 33.8231 394.257 32.3852L394.244 32.3784ZM401.272 59.064C399.672 62.008 397.496 64.28 394.744 65.88C392.056 67.416 389.08 68.184 385.816 68.184C382.552 68.184 379.576 67.416 376.888 65.88C374.2 64.28 372.056 62.008 370.456 59.064C368.856 56.056 368.056 52.536 368.056 48.504C368.056 44.536 368.856 41.08 370.456 38.136C372.056 35.192 374.2 32.952 376.888 31.416C379.576 29.88 382.552 29.112 385.816 29.112C389.08 29.112 392.056 29.912 394.744 31.512C397.496 33.048 399.672 35.288 401.272 38.232C402.872 41.176 403.672 44.632 403.672 48.6C403.672 52.568 402.872 56.056 401.272 59.064ZM473.641 59.104C472.156 64.0182 469.434 68.0049 465.475 71.064C461.251 74.264 455.971 75.864 449.635 75.864C444.643 75.864 440.195 74.744 436.291 72.504C432.451 70.264 429.443 67.096 427.267 63C425.091 58.904 424.003 54.104 424.003 48.6C424.003 43.16 425.091 38.424 427.267 34.392C429.443 30.296 432.451 27.128 436.291 24.888C440.195 22.648 444.643 21.528 449.635 21.528C456.099 21.528 461.411 23.096 465.571 26.232C469.539 29.1777 472.236 33.1964 473.662 38.288C473.755 38.6169 473.841 38.9502 473.923 39.288H464.515C463.619 36.088 461.859 33.56 459.235 31.704C456.675 29.848 453.475 28.92 449.635 28.92C444.643 28.92 440.611 30.648 437.539 34.104C434.467 37.496 432.931 42.328 432.931 48.6C432.931 54.936 434.467 59.832 437.539 63.288C440.611 66.744 444.643 68.472 449.635 68.472C453.475 68.472 456.675 67.576 459.235 65.784C461.795 63.992 463.555 61.432 464.515 58.104H473.923C473.835 58.4415 473.741 58.7748 473.641 59.104ZM426.384 33.9225C424.118 38.1242 423.003 43.0276 423.003 48.6C423.003 54.2371 424.118 59.204 426.384 63.4692C428.643 67.722 431.779 71.0299 435.787 73.3678L435.793 73.3714C439.865 75.7075 444.488 76.864 449.635 76.864C456.145 76.864 461.649 75.217 466.079 71.8611L466.086 71.8553C470.493 68.4504 473.429 63.9376 474.89 58.3574L475.219 57.104H463.763L463.554 57.8268C462.65 60.9605 461.014 63.3182 458.662 64.9648C456.305 66.6145 453.317 67.472 449.635 67.472C444.903 67.472 441.152 65.8477 438.286 62.6236C435.429 59.409 433.931 54.7823 433.931 48.6C433.931 42.4835 435.428 37.9246 438.28 34.7753L438.286 34.7684C441.152 31.5443 444.903 29.92 449.635 29.92C453.31 29.92 456.293 30.8059 458.648 32.5137L458.658 32.5204C461.087 34.239 462.716 36.5706 463.552 39.5576L463.757 40.288H475.193L474.895 39.0534C473.502 33.2806 470.597 28.7192 466.17 25.431C461.799 22.1371 456.261 20.528 449.635 20.528C444.488 20.528 439.865 21.6845 435.793 24.0206L435.787 24.0242C431.779 26.362 428.643 29.6699 426.384 33.9225ZM534.193 52.96H492.33C492.798 57.4181 494.439 60.8716 497.193 63.4091C500.261 66.1133 503.955 67.472 508.332 67.472C511.952 67.472 514.875 66.6454 517.166 65.0605C519.555 63.3887 521.216 61.1923 522.171 58.4475L522.405 57.776H533.84L533.487 59.0443C532.02 64.3133 529.076 68.6263 524.679 71.9571L524.672 71.963C520.244 75.2501 514.776 76.864 508.332 76.864C503.184 76.864 498.532 75.7074 494.4 73.3748L494.394 73.3714C490.324 71.0361 487.123 67.7312 484.798 63.4798L484.795 63.4741C482.465 59.1477 481.315 54.1802 481.315 48.6C481.315 43.0247 482.431 38.0904 484.696 33.8268C486.959 29.5682 490.133 26.2891 494.211 24.0157C498.346 21.6819 503.062 20.528 508.332 20.528C513.473 20.528 518.063 21.6501 522.073 23.922C526.073 26.1888 529.152 29.3319 531.29 33.3384C533.491 37.2768 534.58 41.7326 534.58 46.68C534.58 48.3822 534.481 50.1767 534.286 52.0629L534.193 52.96ZM530.412 33.816C528.364 29.976 525.42 26.968 521.58 24.792C517.74 22.616 513.323 21.528 508.332 21.528C503.211 21.528 498.668 22.648 494.699 24.888C490.796 27.064 487.755 30.2 485.579 34.296C483.404 38.392 482.315 43.16 482.315 48.6C482.315 54.04 483.435 58.84 485.676 63C487.915 67.096 490.987 70.264 494.892 72.504C498.859 74.744 503.34 75.864 508.332 75.864C514.604 75.864 519.852 74.296 524.076 71.16C528.018 68.1736 530.733 64.3789 532.223 59.776C532.329 59.4468 532.43 59.1135 532.524 58.776H523.116C522.092 61.72 520.3 64.088 517.74 65.88C515.244 67.608 512.107 68.472 508.332 68.472C503.724 68.472 499.788 67.032 496.523 64.152C493.532 61.4 491.799 57.6693 491.324 52.96C491.291 52.6314 491.264 52.2981 491.243 51.96H533.292C533.484 50.104 533.58 48.344 533.58 46.68C533.58 41.88 532.524 37.592 530.412 33.816ZM521.498 36.8399L521.492 36.8298C520.121 34.5647 518.253 32.875 515.87 31.7433L515.857 31.7368L515.843 31.7298C513.501 30.5289 510.876 29.92 507.948 29.92C503.767 29.92 500.234 31.2441 497.291 33.8847C494.661 36.2974 493.031 39.5935 492.457 43.856H523.532C523.398 41.1163 522.709 38.7883 521.498 36.8399ZM524.533 43.856C524.548 44.1844 524.556 44.5177 524.556 44.856H491.34C491.37 44.5177 491.406 44.1843 491.449 43.856C492.032 39.3398 493.756 35.7691 496.62 33.144C499.755 30.328 503.531 28.92 507.948 28.92C511.02 28.92 513.804 29.56 516.3 30.84C518.86 32.056 520.876 33.88 522.348 36.312C523.67 38.4393 524.398 40.954 524.533 43.856ZM152.961 12.12C154.113 13.272 155.521 13.848 157.185 13.848C158.785 13.848 160.129 13.272 161.217 12.12C162.369 10.968 162.945 9.56 162.945 7.896C162.945 6.232 162.369 4.824 161.217 3.672C160.129 2.52 158.785 1.944 157.185 1.944C155.521 1.944 154.113 2.52 152.961 3.672C151.809 4.824 151.233 6.232 151.233 7.896C151.233 9.56 151.809 10.968 152.961 12.12ZM161.409 22.392H152.673V75H161.409V22.392Z" fill="white"/>
</svg>
