<svg width="235" height="40" viewBox="0 0 235 40" fill="none" xmlns="http://www.w3.org/2000/svg">
        <mask id="path-1-outside-1" maskUnits="userSpaceOnUse" x="0.475998" y="0.604004" width="234" height="39" fill="black">
        <rect fill="white" x="0.475998" y="0.604004" width="234" height="39"/>
        <path d="M15.408 3.908V22.448C15.408 24.512 14.772 26.168 13.5 27.416C12.228 28.64 10.548 29.252 8.46 29.252C6.348 29.252 4.656 28.628 3.384 27.38C2.112 26.108 1.476 24.38 1.476 22.196H4.752C4.776 23.42 5.088 24.416 5.688 25.184C6.312 25.952 7.236 26.336 8.46 26.336C9.684 26.336 10.596 25.976 11.196 25.256C11.796 24.512 12.096 23.576 12.096 22.448V3.908H15.408Z"/>
        <path d="M34.0658 29.324C32.2178 29.324 30.5378 28.904 29.0258 28.064C27.5378 27.224 26.3618 26.036 25.4978 24.5C24.6578 22.94 24.2378 21.14 24.2378 19.1C24.2378 17.084 24.6698 15.308 25.5338 13.772C26.4218 12.212 27.6218 11.024 29.1338 10.208C30.6458 9.36801 32.3378 8.948 34.2098 8.948C36.0818 8.948 37.7738 9.36801 39.2858 10.208C40.7978 11.024 41.9858 12.2 42.8498 13.736C43.7378 15.272 44.1818 17.06 44.1818 19.1C44.1818 21.14 43.7258 22.94 42.8138 24.5C41.9258 26.036 40.7138 27.224 39.1778 28.064C37.6418 28.904 35.9378 29.324 34.0658 29.324ZM34.0658 26.444C35.2418 26.444 36.3458 26.168 37.3778 25.616C38.4098 25.064 39.2378 24.236 39.8618 23.132C40.5098 22.028 40.8338 20.684 40.8338 19.1C40.8338 17.516 40.5218 16.172 39.8978 15.068C39.2738 13.964 38.4578 13.148 37.4498 12.62C36.4418 12.068 35.3498 11.792 34.1738 11.792C32.9738 11.792 31.8698 12.068 30.8618 12.62C29.8778 13.148 29.0858 13.964 28.4858 15.068C27.8858 16.172 27.5858 17.516 27.5858 19.1C27.5858 20.708 27.8738 22.064 28.4498 23.168C29.0498 24.272 29.8418 25.1 30.8258 25.652C31.8098 26.18 32.8898 26.444 34.0658 26.444Z"/>
        <path d="M56.0852 11.972V23.6C56.0852 24.56 56.2892 25.244 56.6972 25.652C57.1052 26.036 57.8132 26.228 58.8212 26.228H61.2332V29H58.2812C56.4572 29 55.0892 28.58 54.1772 27.74C53.2652 26.9 52.8092 25.52 52.8092 23.6V11.972H50.2532V9.27201H52.8092V4.304H56.0852V9.27201H61.2332V11.972H56.0852Z"/>
        <path d="M70.4945 6.068C69.8705 6.068 69.3425 5.852 68.9105 5.42C68.4785 4.988 68.2625 4.46 68.2625 3.836C68.2625 3.212 68.4785 2.684 68.9105 2.252C69.3425 1.82 69.8705 1.604 70.4945 1.604C71.0945 1.604 71.5985 1.82 72.0065 2.252C72.4385 2.684 72.6545 3.212 72.6545 3.836C72.6545 4.46 72.4385 4.988 72.0065 5.42C71.5985 5.852 71.0945 6.068 70.4945 6.068ZM72.0785 9.27201V29H68.8025V9.27201H72.0785Z"/>
        <path d="M80.0378 19.064C80.0378 17.048 80.4458 15.284 81.2618 13.772C82.0778 12.236 83.1938 11.048 84.6098 10.208C86.0498 9.36801 87.6458 8.948 89.3978 8.948C91.1258 8.948 92.6258 9.32 93.8979 10.064C95.1699 10.808 96.1178 11.744 96.7418 12.872V9.27201H100.054V29H96.7418V25.328C96.0938 26.48 95.1218 27.44 93.8258 28.208C92.5538 28.952 91.0658 29.324 89.3618 29.324C87.6098 29.324 86.0258 28.892 84.6098 28.028C83.1938 27.164 82.0778 25.952 81.2618 24.392C80.4458 22.832 80.0378 21.056 80.0378 19.064ZM96.7418 19.1C96.7418 17.612 96.4418 16.316 95.8418 15.212C95.2418 14.108 94.4258 13.268 93.3938 12.692C92.3858 12.092 91.2698 11.792 90.0458 11.792C88.8218 11.792 87.7058 12.08 86.6978 12.656C85.6898 13.232 84.8858 14.072 84.2858 15.176C83.6858 16.28 83.3858 17.576 83.3858 19.064C83.3858 20.576 83.6858 21.896 84.2858 23.024C84.8858 24.128 85.6898 24.98 86.6978 25.58C87.7058 26.156 88.8218 26.444 90.0458 26.444C91.2698 26.444 92.3858 26.156 93.3938 25.58C94.4258 24.98 95.2418 24.128 95.8418 23.024C96.4418 21.896 96.7418 20.588 96.7418 19.1Z"/>
        <path d="M117.146 29.252C115.49 29.252 114.002 28.964 112.682 28.388C111.386 27.788 110.366 26.972 109.622 25.94C108.878 24.884 108.494 23.672 108.47 22.304H111.962C112.082 23.48 112.562 24.476 113.402 25.292C114.266 26.084 115.514 26.48 117.146 26.48C118.706 26.48 119.93 26.096 120.818 25.328C121.73 24.536 122.186 23.528 122.186 22.304C122.186 21.344 121.922 20.564 121.394 19.964C120.866 19.364 120.206 18.908 119.414 18.596C118.622 18.284 117.554 17.948 116.21 17.588C114.554 17.156 113.222 16.724 112.214 16.292C111.23 15.86 110.378 15.188 109.658 14.276C108.962 13.34 108.614 12.092 108.614 10.532C108.614 9.164 108.962 7.952 109.658 6.89601C110.354 5.84 111.326 5.024 112.574 4.448C113.846 3.872 115.298 3.584 116.93 3.584C119.282 3.584 121.202 4.172 122.69 5.34801C124.202 6.524 125.054 8.084 125.246 10.028H121.646C121.526 9.06801 121.022 8.228 120.134 7.50801C119.246 6.764 118.07 6.392 116.606 6.392C115.238 6.392 114.122 6.752 113.258 7.472C112.394 8.168 111.962 9.15201 111.962 10.424C111.962 11.336 112.214 12.08 112.718 12.656C113.246 13.232 113.882 13.676 114.626 13.988C115.394 14.276 116.462 14.612 117.83 14.996C119.486 15.452 120.818 15.908 121.826 16.364C122.834 16.796 123.698 17.48 124.418 18.416C125.138 19.328 125.498 20.576 125.498 22.16C125.498 23.384 125.174 24.536 124.526 25.616C123.878 26.696 122.918 27.572 121.646 28.244C120.374 28.916 118.874 29.252 117.146 29.252Z"/>
        <path d="M137.195 12.908C137.843 11.78 138.803 10.844 140.075 10.1C141.371 9.332 142.871 8.948 144.575 8.948C146.327 8.948 147.911 9.36801 149.327 10.208C150.767 11.048 151.895 12.236 152.711 13.772C153.527 15.284 153.935 17.048 153.935 19.064C153.935 21.056 153.527 22.832 152.711 24.392C151.895 25.952 150.767 27.164 149.327 28.028C147.911 28.892 146.327 29.324 144.575 29.324C142.895 29.324 141.407 28.952 140.111 28.208C138.839 27.44 137.867 26.492 137.195 25.364V38.36H133.919V9.27201H137.195V12.908ZM150.587 19.064C150.587 17.576 150.287 16.28 149.687 15.176C149.087 14.072 148.271 13.232 147.239 12.656C146.231 12.08 145.115 11.792 143.891 11.792C142.691 11.792 141.575 12.092 140.543 12.692C139.535 13.268 138.719 14.12 138.095 15.248C137.495 16.352 137.195 17.636 137.195 19.1C137.195 20.588 137.495 21.896 138.095 23.024C138.719 24.128 139.535 24.98 140.543 25.58C141.575 26.156 142.691 26.444 143.891 26.444C145.115 26.444 146.231 26.156 147.239 25.58C148.271 24.98 149.087 24.128 149.687 23.024C150.287 21.896 150.587 20.576 150.587 19.064Z"/>
        <path d="M160.623 19.064C160.623 17.048 161.031 15.284 161.847 13.772C162.663 12.236 163.779 11.048 165.195 10.208C166.635 9.36801 168.231 8.948 169.983 8.948C171.711 8.948 173.211 9.32 174.483 10.064C175.755 10.808 176.703 11.744 177.327 12.872V9.27201H180.639V29H177.327V25.328C176.679 26.48 175.707 27.44 174.411 28.208C173.139 28.952 171.651 29.324 169.947 29.324C168.195 29.324 166.611 28.892 165.195 28.028C163.779 27.164 162.663 25.952 161.847 24.392C161.031 22.832 160.623 21.056 160.623 19.064ZM177.327 19.1C177.327 17.612 177.027 16.316 176.427 15.212C175.827 14.108 175.011 13.268 173.979 12.692C172.971 12.092 171.855 11.792 170.631 11.792C169.407 11.792 168.291 12.08 167.283 12.656C166.275 13.232 165.471 14.072 164.871 15.176C164.271 16.28 163.971 17.576 163.971 19.064C163.971 20.576 164.271 21.896 164.871 23.024C165.471 24.128 166.275 24.98 167.283 25.58C168.291 26.156 169.407 26.444 170.631 26.444C171.855 26.444 172.971 26.156 173.979 25.58C175.011 24.98 175.827 24.128 176.427 23.024C177.027 21.896 177.327 20.588 177.327 19.1Z"/>
        <path d="M188.551 19.1C188.551 17.06 188.959 15.284 189.775 13.772C190.591 12.236 191.719 11.048 193.159 10.208C194.623 9.36801 196.291 8.948 198.163 8.948C200.587 8.948 202.579 9.53601 204.139 10.712C205.723 11.888 206.767 13.52 207.271 15.608H203.743C203.407 14.408 202.747 13.46 201.763 12.764C200.803 12.068 199.603 11.72 198.163 11.72C196.291 11.72 194.779 12.368 193.627 13.664C192.475 14.936 191.899 16.748 191.899 19.1C191.899 21.476 192.475 23.312 193.627 24.608C194.779 25.904 196.291 26.552 198.163 26.552C199.603 26.552 200.803 26.216 201.763 25.544C202.723 24.872 203.383 23.912 203.743 22.664H207.271C206.743 24.68 205.687 26.3 204.103 27.524C202.519 28.724 200.539 29.324 198.163 29.324C196.291 29.324 194.623 28.904 193.159 28.064C191.719 27.224 190.591 26.036 189.775 24.5C188.959 22.964 188.551 21.164 188.551 19.1Z"/>
        <path d="M233.242 18.38C233.242 19.004 233.206 19.664 233.134 20.36H217.366C217.486 22.304 218.146 23.828 219.346 24.932C220.57 26.012 222.046 26.552 223.774 26.552C225.19 26.552 226.366 26.228 227.302 25.58C228.262 24.908 228.934 24.02 229.318 22.916H232.846C232.318 24.812 231.262 26.36 229.678 27.56C228.094 28.736 226.126 29.324 223.774 29.324C221.902 29.324 220.222 28.904 218.734 28.064C217.27 27.224 216.118 26.036 215.278 24.5C214.438 22.94 214.018 21.14 214.018 19.1C214.018 17.06 214.426 15.272 215.242 13.736C216.058 12.2 217.198 11.024 218.662 10.208C220.15 9.36801 221.854 8.948 223.774 8.948C225.646 8.948 227.302 9.35601 228.742 10.172C230.182 10.988 231.286 12.116 232.054 13.556C232.846 14.972 233.242 16.58 233.242 18.38ZM229.858 17.696C229.858 16.448 229.582 15.38 229.03 14.492C228.478 13.58 227.722 12.896 226.762 12.44C225.826 11.96 224.782 11.72 223.63 11.72C221.974 11.72 220.558 12.248 219.382 13.304C218.23 14.36 217.57 15.824 217.402 17.696H229.858Z"/>
        </mask>
        <path d="M15.408 3.908V22.448C15.408 24.512 14.772 26.168 13.5 27.416C12.228 28.64 10.548 29.252 8.46 29.252C6.348 29.252 4.656 28.628 3.384 27.38C2.112 26.108 1.476 24.38 1.476 22.196H4.752C4.776 23.42 5.088 24.416 5.688 25.184C6.312 25.952 7.236 26.336 8.46 26.336C9.684 26.336 10.596 25.976 11.196 25.256C11.796 24.512 12.096 23.576 12.096 22.448V3.908H15.408Z" stroke="white" stroke-width="2" mask="url(#path-1-outside-1)"/>
        <path d="M34.0658 29.324C32.2178 29.324 30.5378 28.904 29.0258 28.064C27.5378 27.224 26.3618 26.036 25.4978 24.5C24.6578 22.94 24.2378 21.14 24.2378 19.1C24.2378 17.084 24.6698 15.308 25.5338 13.772C26.4218 12.212 27.6218 11.024 29.1338 10.208C30.6458 9.36801 32.3378 8.948 34.2098 8.948C36.0818 8.948 37.7738 9.36801 39.2858 10.208C40.7978 11.024 41.9858 12.2 42.8498 13.736C43.7378 15.272 44.1818 17.06 44.1818 19.1C44.1818 21.14 43.7258 22.94 42.8138 24.5C41.9258 26.036 40.7138 27.224 39.1778 28.064C37.6418 28.904 35.9378 29.324 34.0658 29.324ZM34.0658 26.444C35.2418 26.444 36.3458 26.168 37.3778 25.616C38.4098 25.064 39.2378 24.236 39.8618 23.132C40.5098 22.028 40.8338 20.684 40.8338 19.1C40.8338 17.516 40.5218 16.172 39.8978 15.068C39.2738 13.964 38.4578 13.148 37.4498 12.62C36.4418 12.068 35.3498 11.792 34.1738 11.792C32.9738 11.792 31.8698 12.068 30.8618 12.62C29.8778 13.148 29.0858 13.964 28.4858 15.068C27.8858 16.172 27.5858 17.516 27.5858 19.1C27.5858 20.708 27.8738 22.064 28.4498 23.168C29.0498 24.272 29.8418 25.1 30.8258 25.652C31.8098 26.18 32.8898 26.444 34.0658 26.444Z" stroke="white" stroke-width="2" mask="url(#path-1-outside-1)"/>
        <path d="M56.0852 11.972V23.6C56.0852 24.56 56.2892 25.244 56.6972 25.652C57.1052 26.036 57.8132 26.228 58.8212 26.228H61.2332V29H58.2812C56.4572 29 55.0892 28.58 54.1772 27.74C53.2652 26.9 52.8092 25.52 52.8092 23.6V11.972H50.2532V9.27201H52.8092V4.304H56.0852V9.27201H61.2332V11.972H56.0852Z" stroke="white" stroke-width="2" mask="url(#path-1-outside-1)"/>
        <path d="M70.4945 6.068C69.8705 6.068 69.3425 5.852 68.9105 5.42C68.4785 4.988 68.2625 4.46 68.2625 3.836C68.2625 3.212 68.4785 2.684 68.9105 2.252C69.3425 1.82 69.8705 1.604 70.4945 1.604C71.0945 1.604 71.5985 1.82 72.0065 2.252C72.4385 2.684 72.6545 3.212 72.6545 3.836C72.6545 4.46 72.4385 4.988 72.0065 5.42C71.5985 5.852 71.0945 6.068 70.4945 6.068ZM72.0785 9.27201V29H68.8025V9.27201H72.0785Z" stroke="white" stroke-width="2" mask="url(#path-1-outside-1)"/>
        <path d="M80.0378 19.064C80.0378 17.048 80.4458 15.284 81.2618 13.772C82.0778 12.236 83.1938 11.048 84.6098 10.208C86.0498 9.36801 87.6458 8.948 89.3978 8.948C91.1258 8.948 92.6258 9.32 93.8979 10.064C95.1699 10.808 96.1178 11.744 96.7418 12.872V9.27201H100.054V29H96.7418V25.328C96.0938 26.48 95.1218 27.44 93.8258 28.208C92.5538 28.952 91.0658 29.324 89.3618 29.324C87.6098 29.324 86.0258 28.892 84.6098 28.028C83.1938 27.164 82.0778 25.952 81.2618 24.392C80.4458 22.832 80.0378 21.056 80.0378 19.064ZM96.7418 19.1C96.7418 17.612 96.4418 16.316 95.8418 15.212C95.2418 14.108 94.4258 13.268 93.3938 12.692C92.3858 12.092 91.2698 11.792 90.0458 11.792C88.8218 11.792 87.7058 12.08 86.6978 12.656C85.6898 13.232 84.8858 14.072 84.2858 15.176C83.6858 16.28 83.3858 17.576 83.3858 19.064C83.3858 20.576 83.6858 21.896 84.2858 23.024C84.8858 24.128 85.6898 24.98 86.6978 25.58C87.7058 26.156 88.8218 26.444 90.0458 26.444C91.2698 26.444 92.3858 26.156 93.3938 25.58C94.4258 24.98 95.2418 24.128 95.8418 23.024C96.4418 21.896 96.7418 20.588 96.7418 19.1Z" stroke="white" stroke-width="2" mask="url(#path-1-outside-1)"/>
        <path d="M117.146 29.252C115.49 29.252 114.002 28.964 112.682 28.388C111.386 27.788 110.366 26.972 109.622 25.94C108.878 24.884 108.494 23.672 108.47 22.304H111.962C112.082 23.48 112.562 24.476 113.402 25.292C114.266 26.084 115.514 26.48 117.146 26.48C118.706 26.48 119.93 26.096 120.818 25.328C121.73 24.536 122.186 23.528 122.186 22.304C122.186 21.344 121.922 20.564 121.394 19.964C120.866 19.364 120.206 18.908 119.414 18.596C118.622 18.284 117.554 17.948 116.21 17.588C114.554 17.156 113.222 16.724 112.214 16.292C111.23 15.86 110.378 15.188 109.658 14.276C108.962 13.34 108.614 12.092 108.614 10.532C108.614 9.164 108.962 7.952 109.658 6.89601C110.354 5.84 111.326 5.024 112.574 4.448C113.846 3.872 115.298 3.584 116.93 3.584C119.282 3.584 121.202 4.172 122.69 5.34801C124.202 6.524 125.054 8.084 125.246 10.028H121.646C121.526 9.06801 121.022 8.228 120.134 7.50801C119.246 6.764 118.07 6.392 116.606 6.392C115.238 6.392 114.122 6.752 113.258 7.472C112.394 8.168 111.962 9.15201 111.962 10.424C111.962 11.336 112.214 12.08 112.718 12.656C113.246 13.232 113.882 13.676 114.626 13.988C115.394 14.276 116.462 14.612 117.83 14.996C119.486 15.452 120.818 15.908 121.826 16.364C122.834 16.796 123.698 17.48 124.418 18.416C125.138 19.328 125.498 20.576 125.498 22.16C125.498 23.384 125.174 24.536 124.526 25.616C123.878 26.696 122.918 27.572 121.646 28.244C120.374 28.916 118.874 29.252 117.146 29.252Z" stroke="white" stroke-width="2" mask="url(#path-1-outside-1)"/>
        <path d="M137.195 12.908C137.843 11.78 138.803 10.844 140.075 10.1C141.371 9.332 142.871 8.948 144.575 8.948C146.327 8.948 147.911 9.36801 149.327 10.208C150.767 11.048 151.895 12.236 152.711 13.772C153.527 15.284 153.935 17.048 153.935 19.064C153.935 21.056 153.527 22.832 152.711 24.392C151.895 25.952 150.767 27.164 149.327 28.028C147.911 28.892 146.327 29.324 144.575 29.324C142.895 29.324 141.407 28.952 140.111 28.208C138.839 27.44 137.867 26.492 137.195 25.364V38.36H133.919V9.27201H137.195V12.908ZM150.587 19.064C150.587 17.576 150.287 16.28 149.687 15.176C149.087 14.072 148.271 13.232 147.239 12.656C146.231 12.08 145.115 11.792 143.891 11.792C142.691 11.792 141.575 12.092 140.543 12.692C139.535 13.268 138.719 14.12 138.095 15.248C137.495 16.352 137.195 17.636 137.195 19.1C137.195 20.588 137.495 21.896 138.095 23.024C138.719 24.128 139.535 24.98 140.543 25.58C141.575 26.156 142.691 26.444 143.891 26.444C145.115 26.444 146.231 26.156 147.239 25.58C148.271 24.98 149.087 24.128 149.687 23.024C150.287 21.896 150.587 20.576 150.587 19.064Z" stroke="white" stroke-width="2" mask="url(#path-1-outside-1)"/>
        <path d="M160.623 19.064C160.623 17.048 161.031 15.284 161.847 13.772C162.663 12.236 163.779 11.048 165.195 10.208C166.635 9.36801 168.231 8.948 169.983 8.948C171.711 8.948 173.211 9.32 174.483 10.064C175.755 10.808 176.703 11.744 177.327 12.872V9.27201H180.639V29H177.327V25.328C176.679 26.48 175.707 27.44 174.411 28.208C173.139 28.952 171.651 29.324 169.947 29.324C168.195 29.324 166.611 28.892 165.195 28.028C163.779 27.164 162.663 25.952 161.847 24.392C161.031 22.832 160.623 21.056 160.623 19.064ZM177.327 19.1C177.327 17.612 177.027 16.316 176.427 15.212C175.827 14.108 175.011 13.268 173.979 12.692C172.971 12.092 171.855 11.792 170.631 11.792C169.407 11.792 168.291 12.08 167.283 12.656C166.275 13.232 165.471 14.072 164.871 15.176C164.271 16.28 163.971 17.576 163.971 19.064C163.971 20.576 164.271 21.896 164.871 23.024C165.471 24.128 166.275 24.98 167.283 25.58C168.291 26.156 169.407 26.444 170.631 26.444C171.855 26.444 172.971 26.156 173.979 25.58C175.011 24.98 175.827 24.128 176.427 23.024C177.027 21.896 177.327 20.588 177.327 19.1Z" stroke="white" stroke-width="2" mask="url(#path-1-outside-1)"/>
        <path d="M188.551 19.1C188.551 17.06 188.959 15.284 189.775 13.772C190.591 12.236 191.719 11.048 193.159 10.208C194.623 9.36801 196.291 8.948 198.163 8.948C200.587 8.948 202.579 9.53601 204.139 10.712C205.723 11.888 206.767 13.52 207.271 15.608H203.743C203.407 14.408 202.747 13.46 201.763 12.764C200.803 12.068 199.603 11.72 198.163 11.72C196.291 11.72 194.779 12.368 193.627 13.664C192.475 14.936 191.899 16.748 191.899 19.1C191.899 21.476 192.475 23.312 193.627 24.608C194.779 25.904 196.291 26.552 198.163 26.552C199.603 26.552 200.803 26.216 201.763 25.544C202.723 24.872 203.383 23.912 203.743 22.664H207.271C206.743 24.68 205.687 26.3 204.103 27.524C202.519 28.724 200.539 29.324 198.163 29.324C196.291 29.324 194.623 28.904 193.159 28.064C191.719 27.224 190.591 26.036 189.775 24.5C188.959 22.964 188.551 21.164 188.551 19.1Z" stroke="white" stroke-width="2" mask="url(#path-1-outside-1)"/>
        <path d="M233.242 18.38C233.242 19.004 233.206 19.664 233.134 20.36H217.366C217.486 22.304 218.146 23.828 219.346 24.932C220.57 26.012 222.046 26.552 223.774 26.552C225.19 26.552 226.366 26.228 227.302 25.58C228.262 24.908 228.934 24.02 229.318 22.916H232.846C232.318 24.812 231.262 26.36 229.678 27.56C228.094 28.736 226.126 29.324 223.774 29.324C221.902 29.324 220.222 28.904 218.734 28.064C217.27 27.224 216.118 26.036 215.278 24.5C214.438 22.94 214.018 21.14 214.018 19.1C214.018 17.06 214.426 15.272 215.242 13.736C216.058 12.2 217.198 11.024 218.662 10.208C220.15 9.36801 221.854 8.948 223.774 8.948C225.646 8.948 227.302 9.35601 228.742 10.172C230.182 10.988 231.286 12.116 232.054 13.556C232.846 14.972 233.242 16.58 233.242 18.38ZM229.858 17.696C229.858 16.448 229.582 15.38 229.03 14.492C228.478 13.58 227.722 12.896 226.762 12.44C225.826 11.96 224.782 11.72 223.63 11.72C221.974 11.72 220.558 12.248 219.382 13.304C218.23 14.36 217.57 15.824 217.402 17.696H229.858Z" stroke="white" stroke-width="2" mask="url(#path-1-outside-1)"/>
    </svg>