<svg width="513" height="832" viewBox="0 0 513 832" fill="none" xmlns="http://www.w3.org/2000/svg">
<mask id="path-1-outside-1" maskUnits="userSpaceOnUse" x="-0.343994" y="0.208008" width="514" height="832" fill="black">
<rect fill="white" x="-0.343994" y="0.208008" width="514" height="832"/>
<path d="M68.616 5.81601L54.072 56H46.728L35.064 15.608L22.968 56L15.696 56.072L1.65601 5.81601H8.64001L19.584 48.368L31.68 5.81601H39.024L50.544 48.224L61.56 5.81601H68.616Z"/>
<path d="M79.1702 10.136C77.9222 10.136 76.8662 9.70401 76.0022 8.84001C75.1382 7.97601 74.7062 6.92001 74.7062 5.67201C74.7062 4.42401 75.1382 3.36801 76.0022 2.50401C76.8662 1.64001 77.9222 1.20801 79.1702 1.20801C80.3702 1.20801 81.3782 1.64001 82.1942 2.50401C83.0582 3.36801 83.4902 4.42401 83.4902 5.67201C83.4902 6.92001 83.0582 7.97601 82.1942 8.84001C81.3782 9.70401 80.3702 10.136 79.1702 10.136ZM82.3382 16.544V56H75.7862V16.544H82.3382Z"/>
<path d="M101.497 21.944V45.2C101.497 47.12 101.905 48.488 102.721 49.304C103.537 50.072 104.953 50.456 106.969 50.456H111.793V56H105.889C102.241 56 99.5049 55.16 97.6809 53.48C95.8569 51.8 94.9449 49.04 94.9449 45.2V21.944H89.8329V16.544H94.9449V6.60801H101.497V16.544H111.793V21.944H101.497Z"/>
<path d="M139.316 15.824C142.292 15.824 144.98 16.472 147.38 17.768C149.78 19.016 151.651 20.912 152.995 23.456C154.387 26 155.083 29.096 155.083 32.744V56H148.604V33.68C148.604 29.744 147.62 26.744 145.652 24.68C143.684 22.568 140.995 21.512 137.587 21.512C134.131 21.512 131.372 22.592 129.308 24.752C127.292 26.912 126.284 30.056 126.284 34.184V56H119.732V2.72001H126.284V22.16C127.58 20.144 129.355 18.584 131.611 17.48C133.915 16.376 136.484 15.824 139.316 15.824Z"/>
<path d="M30.816 113.816V150.896C30.816 155.024 29.544 158.336 27 160.832C24.456 163.28 21.096 164.504 16.92 164.504C12.696 164.504 9.31201 163.256 6.76801 160.76C4.22401 158.216 2.95201 154.76 2.95201 150.392H9.50401C9.55201 152.84 10.176 154.832 11.376 156.368C12.624 157.904 14.472 158.672 16.92 158.672C19.368 158.672 21.192 157.952 22.392 156.512C23.592 155.024 24.192 153.152 24.192 150.896V113.816H30.816Z"/>
<path d="M60.9317 164.648C57.2357 164.648 53.8757 163.808 50.8517 162.128C47.8757 160.448 45.5237 158.072 43.7957 155C42.1157 151.88 41.2757 148.28 41.2757 144.2C41.2757 140.168 42.1397 136.616 43.8677 133.544C45.6437 130.424 48.0437 128.048 51.0677 126.416C54.0917 124.736 57.4757 123.896 61.2197 123.896C64.9637 123.896 68.3477 124.736 71.3717 126.416C74.3957 128.048 76.7717 130.4 78.4997 133.472C80.2757 136.544 81.1637 140.12 81.1637 144.2C81.1637 148.28 80.2517 151.88 78.4277 155C76.6517 158.072 74.2277 160.448 71.1557 162.128C68.0837 163.808 64.6757 164.648 60.9317 164.648ZM60.9317 158.888C63.2837 158.888 65.4917 158.336 67.5557 157.232C69.6197 156.128 71.2757 154.472 72.5237 152.264C73.8197 150.056 74.4677 147.368 74.4677 144.2C74.4677 141.032 73.8437 138.344 72.5957 136.136C71.3477 133.928 69.7157 132.296 67.6997 131.24C65.6837 130.136 63.4997 129.584 61.1477 129.584C58.7477 129.584 56.5397 130.136 54.5237 131.24C52.5557 132.296 50.9717 133.928 49.7717 136.136C48.5717 138.344 47.9717 141.032 47.9717 144.2C47.9717 147.416 48.5477 150.128 49.6997 152.336C50.8997 154.544 52.4837 156.2 54.4517 157.304C56.4197 158.36 58.5797 158.888 60.9317 158.888Z"/>
<path d="M97.7704 129.944V153.2C97.7704 155.12 98.1784 156.488 98.9944 157.304C99.8104 158.072 101.226 158.456 103.242 158.456H108.066V164H102.162C98.5144 164 95.7784 163.16 93.9544 161.48C92.1304 159.8 91.2184 157.04 91.2184 153.2V129.944H86.1064V124.544H91.2184V114.608H97.7704V124.544H108.066V129.944H97.7704Z"/>
<path d="M119.389 118.136C118.141 118.136 117.085 117.704 116.221 116.84C115.357 115.976 114.925 114.92 114.925 113.672C114.925 112.424 115.357 111.368 116.221 110.504C117.085 109.64 118.141 109.208 119.389 109.208C120.589 109.208 121.597 109.64 122.413 110.504C123.277 111.368 123.709 112.424 123.709 113.672C123.709 114.92 123.277 115.976 122.413 116.84C121.597 117.704 120.589 118.136 119.389 118.136ZM122.557 124.544V164H116.005V124.544H122.557Z"/>
<path d="M131.276 144.128C131.276 140.096 132.092 136.568 133.724 133.544C135.356 130.472 137.588 128.096 140.42 126.416C143.3 124.736 146.492 123.896 149.996 123.896C153.452 123.896 156.452 124.64 158.996 126.128C161.54 127.616 163.436 129.488 164.684 131.744V124.544H171.308V164H164.684V156.656C163.388 158.96 161.444 160.88 158.852 162.416C156.308 163.904 153.332 164.648 149.924 164.648C146.42 164.648 143.252 163.784 140.42 162.056C137.588 160.328 135.356 157.904 133.724 154.784C132.092 151.664 131.276 148.112 131.276 144.128ZM164.684 144.2C164.684 141.224 164.084 138.632 162.884 136.424C161.684 134.216 160.052 132.536 157.988 131.384C155.972 130.184 153.74 129.584 151.292 129.584C148.844 129.584 146.612 130.16 144.596 131.312C142.58 132.464 140.972 134.144 139.772 136.352C138.572 138.56 137.972 141.152 137.972 144.128C137.972 147.152 138.572 149.792 139.772 152.048C140.972 154.256 142.58 155.96 144.596 157.16C146.612 158.312 148.844 158.888 151.292 158.888C153.74 158.888 155.972 158.312 157.988 157.16C160.052 155.96 161.684 154.256 162.884 152.048C164.084 149.792 164.684 147.176 164.684 144.2Z"/>
<path d="M198.292 164.504C194.98 164.504 192.004 163.928 189.364 162.776C186.772 161.576 184.732 159.944 183.244 157.88C181.756 155.768 180.988 153.344 180.94 150.608H187.924C188.164 152.96 189.124 154.952 190.804 156.584C192.532 158.168 195.028 158.96 198.292 158.96C201.412 158.96 203.86 158.192 205.636 156.656C207.46 155.072 208.372 153.056 208.372 150.608C208.372 148.688 207.844 147.128 206.788 145.928C205.732 144.728 204.412 143.816 202.828 143.192C201.244 142.568 199.108 141.896 196.42 141.176C193.108 140.312 190.444 139.448 188.428 138.584C186.46 137.72 184.756 136.376 183.316 134.552C181.924 132.68 181.228 130.184 181.228 127.064C181.228 124.328 181.924 121.904 183.316 119.792C184.708 117.68 186.652 116.048 189.148 114.896C191.692 113.744 194.596 113.168 197.86 113.168C202.564 113.168 206.404 114.344 209.38 116.696C212.404 119.048 214.108 122.168 214.492 126.056H207.292C207.052 124.136 206.044 122.456 204.268 121.016C202.492 119.528 200.14 118.784 197.212 118.784C194.476 118.784 192.244 119.504 190.516 120.944C188.788 122.336 187.924 124.304 187.924 126.848C187.924 128.672 188.428 130.16 189.436 131.312C190.492 132.464 191.764 133.352 193.252 133.976C194.788 134.552 196.924 135.224 199.66 135.992C202.972 136.904 205.636 137.816 207.652 138.728C209.668 139.592 211.396 140.96 212.836 142.832C214.276 144.656 214.996 147.152 214.996 150.32C214.996 152.768 214.348 155.072 213.052 157.232C211.756 159.392 209.836 161.144 207.292 162.488C204.748 163.832 201.748 164.504 198.292 164.504Z"/>
<path d="M231.19 131.816C232.486 129.56 234.406 127.688 236.95 126.2C239.542 124.664 242.542 123.896 245.95 123.896C249.454 123.896 252.622 124.736 255.454 126.416C258.334 128.096 260.59 130.472 262.222 133.544C263.854 136.568 264.67 140.096 264.67 144.128C264.67 148.112 263.854 151.664 262.222 154.784C260.59 157.904 258.334 160.328 255.454 162.056C252.622 163.784 249.454 164.648 245.95 164.648C242.59 164.648 239.614 163.904 237.022 162.416C234.478 160.88 232.534 158.984 231.19 156.728V182.72H224.638V124.544H231.19V131.816ZM257.974 144.128C257.974 141.152 257.374 138.56 256.174 136.352C254.974 134.144 253.342 132.464 251.278 131.312C249.262 130.16 247.03 129.584 244.582 129.584C242.182 129.584 239.95 130.184 237.886 131.384C235.87 132.536 234.238 134.24 232.99 136.496C231.79 138.704 231.19 141.272 231.19 144.2C231.19 147.176 231.79 149.792 232.99 152.048C234.238 154.256 235.87 155.96 237.886 157.16C239.95 158.312 242.182 158.888 244.582 158.888C247.03 158.888 249.262 158.312 251.278 157.16C253.342 155.96 254.974 154.256 256.174 152.048C257.374 149.792 257.974 147.152 257.974 144.128Z"/>
<path d="M270.846 144.128C270.846 140.096 271.662 136.568 273.294 133.544C274.926 130.472 277.158 128.096 279.99 126.416C282.87 124.736 286.062 123.896 289.566 123.896C293.022 123.896 296.022 124.64 298.566 126.128C301.11 127.616 303.006 129.488 304.254 131.744V124.544H310.878V164H304.254V156.656C302.958 158.96 301.014 160.88 298.422 162.416C295.878 163.904 292.902 164.648 289.494 164.648C285.99 164.648 282.822 163.784 279.99 162.056C277.158 160.328 274.926 157.904 273.294 154.784C271.662 151.664 270.846 148.112 270.846 144.128ZM304.254 144.2C304.254 141.224 303.654 138.632 302.454 136.424C301.254 134.216 299.622 132.536 297.558 131.384C295.542 130.184 293.31 129.584 290.862 129.584C288.414 129.584 286.182 130.16 284.166 131.312C282.15 132.464 280.542 134.144 279.342 136.352C278.142 138.56 277.542 141.152 277.542 144.128C277.542 147.152 278.142 149.792 279.342 152.048C280.542 154.256 282.15 155.96 284.166 157.16C286.182 158.312 288.414 158.888 290.862 158.888C293.31 158.888 295.542 158.312 297.558 157.16C299.622 155.96 301.254 154.256 302.454 152.048C303.654 149.792 304.254 147.176 304.254 144.2Z"/>
<path d="M319.502 144.2C319.502 140.12 320.318 136.568 321.95 133.544C323.582 130.472 325.838 128.096 328.718 126.416C331.646 124.736 334.982 123.896 338.726 123.896C343.574 123.896 347.558 125.072 350.678 127.424C353.846 129.776 355.934 133.04 356.942 137.216H349.886C349.214 134.816 347.894 132.92 345.926 131.528C344.006 130.136 341.606 129.44 338.726 129.44C334.982 129.44 331.958 130.736 329.654 133.328C327.35 135.872 326.198 139.496 326.198 144.2C326.198 148.952 327.35 152.624 329.654 155.216C331.958 157.808 334.982 159.104 338.726 159.104C341.606 159.104 344.006 158.432 345.926 157.088C347.846 155.744 349.166 153.824 349.886 151.328H356.942C355.886 155.36 353.774 158.6 350.606 161.048C347.438 163.448 343.478 164.648 338.726 164.648C334.982 164.648 331.646 163.808 328.718 162.128C325.838 160.448 323.582 158.072 321.95 155C320.318 151.928 319.502 148.328 319.502 144.2Z"/>
<path d="M401.685 142.76C401.685 144.008 401.613 145.328 401.469 146.72H369.933C370.173 150.608 371.493 153.656 373.893 155.864C376.341 158.024 379.293 159.104 382.749 159.104C385.581 159.104 387.933 158.456 389.805 157.16C391.725 155.816 393.069 154.04 393.837 151.832H400.893C399.837 155.624 397.725 158.72 394.557 161.12C391.389 163.472 387.453 164.648 382.749 164.648C379.005 164.648 375.645 163.808 372.669 162.128C369.741 160.448 367.437 158.072 365.757 155C364.077 151.88 363.237 148.28 363.237 144.2C363.237 140.12 364.053 136.544 365.685 133.472C367.317 130.4 369.597 128.048 372.525 126.416C375.501 124.736 378.909 123.896 382.749 123.896C386.493 123.896 389.805 124.712 392.685 126.344C395.565 127.976 397.773 130.232 399.309 133.112C400.893 135.944 401.685 139.16 401.685 142.76ZM394.917 141.392C394.917 138.896 394.365 136.76 393.261 134.984C392.157 133.16 390.645 131.792 388.725 130.88C386.853 129.92 384.765 129.44 382.461 129.44C379.149 129.44 376.317 130.496 373.965 132.608C371.661 134.72 370.341 137.648 370.005 141.392H394.917Z"/>
<path d="M417.101 154.928L409.037 174.296H404.645L409.901 154.928H417.101Z"/>
<path d="M68.616 221.816L54.072 272H46.728L35.064 231.608L22.968 272L15.696 272.072L1.65601 221.816H8.64001L19.584 264.368L31.68 221.816H39.024L50.544 264.224L61.56 221.816H68.616Z"/>
<path d="M111.786 250.76C111.786 252.008 111.714 253.328 111.57 254.72H80.0342C80.2742 258.608 81.5942 261.656 83.9942 263.864C86.4422 266.024 89.3942 267.104 92.8502 267.104C95.6822 267.104 98.0342 266.456 99.9062 265.16C101.826 263.816 103.17 262.04 103.938 259.832H110.994C109.938 263.624 107.826 266.72 104.658 269.12C101.49 271.472 97.5542 272.648 92.8502 272.648C89.1062 272.648 85.7462 271.808 82.7702 270.128C79.8422 268.448 77.5382 266.072 75.8582 263C74.1782 259.88 73.3382 256.28 73.3382 252.2C73.3382 248.12 74.1542 244.544 75.7862 241.472C77.4182 238.4 79.6982 236.048 82.6262 234.416C85.6022 232.736 89.0102 231.896 92.8502 231.896C96.5942 231.896 99.9062 232.712 102.786 234.344C105.666 235.976 107.874 238.232 109.41 241.112C110.994 243.944 111.786 247.16 111.786 250.76ZM105.018 249.392C105.018 246.896 104.466 244.76 103.362 242.984C102.258 241.16 100.746 239.792 98.8262 238.88C96.9542 237.92 94.8662 237.44 92.5622 237.44C89.2502 237.44 86.4182 238.496 84.0662 240.608C81.7622 242.72 80.4422 245.648 80.1062 249.392H105.018Z"/>
<path d="M170.518 221.816V227.144H156.838V272H150.286V227.144H136.534V221.816H170.518Z"/>
<path d="M213.575 232.544V272H207.023V266.168C205.775 268.184 204.023 269.768 201.767 270.92C199.559 272.024 197.111 272.576 194.423 272.576C191.351 272.576 188.591 271.952 186.143 270.704C183.695 269.408 181.751 267.488 180.311 264.944C178.919 262.4 178.223 259.304 178.223 255.656V232.544H184.703V254.792C184.703 258.68 185.687 261.68 187.655 263.792C189.623 265.856 192.311 266.888 195.719 266.888C199.223 266.888 201.983 265.808 203.999 263.648C206.015 261.488 207.023 258.344 207.023 254.216V232.544H213.575Z"/>
<path d="M231.19 238.952C232.342 236.696 233.974 234.944 236.086 233.696C238.246 232.448 240.862 231.824 243.934 231.824V238.592H242.206C234.862 238.592 231.19 242.576 231.19 250.544V272H224.638V232.544H231.19V238.952Z"/>
<path d="M270.721 231.824C275.521 231.824 279.409 233.288 282.385 236.216C285.361 239.096 286.849 243.272 286.849 248.744V272H280.369V249.68C280.369 245.744 279.385 242.744 277.417 240.68C275.449 238.568 272.761 237.512 269.353 237.512C265.897 237.512 263.137 238.592 261.073 240.752C259.057 242.912 258.049 246.056 258.049 250.184V272H251.497V232.544H258.049V238.16C259.345 236.144 261.097 234.584 263.305 233.48C265.561 232.376 268.033 231.824 270.721 231.824Z"/>
<path d="M11.952 329.816V361.568C11.952 366.032 13.032 369.344 15.192 371.504C17.4 373.664 20.448 374.744 24.336 374.744C28.176 374.744 31.176 373.664 33.336 371.504C35.544 369.344 36.648 366.032 36.648 361.568V329.816H43.2V361.496C43.2 365.672 42.36 369.2 40.68 372.08C39 374.912 36.72 377.024 33.84 378.416C31.008 379.808 27.816 380.504 24.264 380.504C20.712 380.504 17.496 379.808 14.616 378.416C11.784 377.024 9.52801 374.912 7.84801 372.08C6.21601 369.2 5.40001 365.672 5.40001 361.496V329.816H11.952Z"/>
<path d="M68.0979 380.648C65.0739 380.648 62.3619 380.144 59.9619 379.136C57.5619 378.08 55.6659 376.64 54.2739 374.816C52.8819 372.944 52.1139 370.808 51.9699 368.408H58.7379C58.9299 370.376 59.8419 371.984 61.4739 373.232C63.1539 374.48 65.3379 375.104 68.0259 375.104C70.5219 375.104 72.4899 374.552 73.9299 373.448C75.3699 372.344 76.09 370.952 76.09 369.272C76.09 367.544 75.3219 366.272 73.7859 365.456C72.2499 364.592 69.8739 363.752 66.6579 362.936C63.7299 362.168 61.3299 361.4 59.4579 360.632C57.6339 359.816 56.0499 358.64 54.7059 357.104C53.4099 355.52 52.7619 353.456 52.7619 350.912C52.7619 348.896 53.3619 347.048 54.5619 345.368C55.7619 343.688 57.4659 342.368 59.6739 341.408C61.8819 340.4 64.4019 339.896 67.2339 339.896C71.6019 339.896 75.1299 341 77.8179 343.208C80.5059 345.416 81.9459 348.44 82.1379 352.28H75.5859C75.4419 350.216 74.6019 348.56 73.0659 347.312C71.5779 346.064 69.5619 345.44 67.0179 345.44C64.6659 345.44 62.7939 345.944 61.4019 346.952C60.0099 347.96 59.3139 349.28 59.3139 350.912C59.3139 352.208 59.7219 353.288 60.5379 354.152C61.4019 354.968 62.4579 355.64 63.7059 356.168C65.0019 356.648 66.7779 357.2 69.0339 357.824C71.8659 358.592 74.1699 359.36 75.9459 360.128C77.7219 360.848 79.2339 361.952 80.4819 363.44C81.7779 364.928 82.4499 366.872 82.4979 369.272C82.4979 371.432 81.8979 373.376 80.6979 375.104C79.4979 376.832 77.7939 378.2 75.5859 379.208C73.4259 380.168 70.9299 380.648 68.0979 380.648Z"/>
<path d="M127.747 358.76C127.747 360.008 127.675 361.328 127.531 362.72H95.9951C96.2351 366.608 97.5551 369.656 99.9551 371.864C102.403 374.024 105.355 375.104 108.811 375.104C111.643 375.104 113.995 374.456 115.867 373.16C117.787 371.816 119.131 370.04 119.899 367.832H126.955C125.899 371.624 123.787 374.72 120.619 377.12C117.451 379.472 113.515 380.648 108.811 380.648C105.067 380.648 101.707 379.808 98.7311 378.128C95.8031 376.448 93.4991 374.072 91.8191 371C90.1391 367.88 89.2991 364.28 89.2991 360.2C89.2991 356.12 90.1151 352.544 91.7471 349.472C93.3791 346.4 95.6591 344.048 98.5871 342.416C101.563 340.736 104.971 339.896 108.811 339.896C112.555 339.896 115.867 340.712 118.747 342.344C121.627 343.976 123.835 346.232 125.371 349.112C126.955 351.944 127.747 355.16 127.747 358.76ZM120.979 357.392C120.979 354.896 120.427 352.76 119.323 350.984C118.219 349.16 116.707 347.792 114.787 346.88C112.915 345.92 110.827 345.44 108.523 345.44C105.211 345.44 102.379 346.496 100.027 348.608C97.7231 350.72 96.4031 353.648 96.0671 357.392H120.979Z"/>
<path d="M133.948 360.128C133.948 356.096 134.764 352.568 136.396 349.544C138.028 346.472 140.26 344.096 143.092 342.416C145.972 340.736 149.188 339.896 152.74 339.896C155.812 339.896 158.668 340.616 161.308 342.056C163.948 343.448 165.964 345.296 167.356 347.6V326.72H173.98V380H167.356V372.584C166.06 374.936 164.14 376.88 161.596 378.416C159.052 379.904 156.076 380.648 152.668 380.648C149.164 380.648 145.972 379.784 143.092 378.056C140.26 376.328 138.028 373.904 136.396 370.784C134.764 367.664 133.948 364.112 133.948 360.128ZM167.356 360.2C167.356 357.224 166.756 354.632 165.556 352.424C164.356 350.216 162.724 348.536 160.66 347.384C158.644 346.184 156.412 345.584 153.964 345.584C151.516 345.584 149.284 346.16 147.268 347.312C145.252 348.464 143.644 350.144 142.444 352.352C141.244 354.56 140.644 357.152 140.644 360.128C140.644 363.152 141.244 365.792 142.444 368.048C143.644 370.256 145.252 371.96 147.268 373.16C149.284 374.312 151.516 374.888 153.964 374.888C156.412 374.888 158.644 374.312 160.66 373.16C162.724 371.96 164.356 370.256 165.556 368.048C166.756 365.792 167.356 363.176 167.356 360.2Z"/>
<path d="M237.799 344.504C237.799 348.68 236.359 352.16 233.479 354.944C230.647 357.68 226.303 359.048 220.447 359.048H210.799V380H204.247V329.816H220.447C226.111 329.816 230.407 331.184 233.335 333.92C236.311 336.656 237.799 340.184 237.799 344.504ZM220.447 353.648C224.095 353.648 226.783 352.856 228.511 351.272C230.239 349.688 231.103 347.432 231.103 344.504C231.103 338.312 227.551 335.216 220.447 335.216H210.799V353.648H220.447Z"/>
<path d="M252.494 346.952C253.646 344.696 255.278 342.944 257.39 341.696C259.55 340.448 262.166 339.824 265.238 339.824V346.592H263.51C256.166 346.592 252.494 350.576 252.494 358.544V380H245.942V340.544H252.494V346.952Z"/>
<path d="M290.01 380.648C286.314 380.648 282.954 379.808 279.93 378.128C276.954 376.448 274.602 374.072 272.874 371C271.194 367.88 270.354 364.28 270.354 360.2C270.354 356.168 271.218 352.616 272.946 349.544C274.722 346.424 277.122 344.048 280.146 342.416C283.17 340.736 286.554 339.896 290.298 339.896C294.042 339.896 297.426 340.736 300.45 342.416C303.474 344.048 305.85 346.4 307.578 349.472C309.354 352.544 310.242 356.12 310.242 360.2C310.242 364.28 309.33 367.88 307.506 371C305.73 374.072 303.306 376.448 300.234 378.128C297.162 379.808 293.754 380.648 290.01 380.648ZM290.01 374.888C292.362 374.888 294.57 374.336 296.634 373.232C298.698 372.128 300.354 370.472 301.602 368.264C302.898 366.056 303.546 363.368 303.546 360.2C303.546 357.032 302.922 354.344 301.674 352.136C300.426 349.928 298.794 348.296 296.778 347.24C294.762 346.136 292.578 345.584 290.226 345.584C287.826 345.584 285.618 346.136 283.602 347.24C281.634 348.296 280.05 349.928 278.85 352.136C277.65 354.344 277.05 357.032 277.05 360.2C277.05 363.416 277.626 366.128 278.778 368.336C279.978 370.544 281.562 372.2 283.53 373.304C285.498 374.36 287.658 374.888 290.01 374.888Z"/>
<path d="M316.409 360.128C316.409 356.096 317.225 352.568 318.857 349.544C320.489 346.472 322.72 344.096 325.552 342.416C328.432 340.736 331.648 339.896 335.201 339.896C338.273 339.896 341.128 340.616 343.768 342.056C346.408 343.448 348.424 345.296 349.816 347.6V326.72H356.44V380H349.816V372.584C348.52 374.936 346.6 376.88 344.056 378.416C341.512 379.904 338.537 380.648 335.129 380.648C331.625 380.648 328.432 379.784 325.552 378.056C322.72 376.328 320.489 373.904 318.857 370.784C317.225 367.664 316.409 364.112 316.409 360.128ZM349.816 360.2C349.816 357.224 349.217 354.632 348.017 352.424C346.817 350.216 345.185 348.536 343.121 347.384C341.105 346.184 338.872 345.584 336.424 345.584C333.976 345.584 331.745 346.16 329.729 347.312C327.713 348.464 326.105 350.144 324.905 352.352C323.705 354.56 323.104 357.152 323.104 360.128C323.104 363.152 323.705 365.792 324.905 368.048C326.105 370.256 327.713 371.96 329.729 373.16C331.745 374.312 333.976 374.888 336.424 374.888C338.872 374.888 341.105 374.312 343.121 373.16C345.185 371.96 346.817 370.256 348.017 368.048C349.217 365.792 349.816 363.176 349.816 360.2Z"/>
<path d="M402.505 340.544V380H395.953V374.168C394.705 376.184 392.953 377.768 390.697 378.92C388.489 380.024 386.041 380.576 383.353 380.576C380.281 380.576 377.521 379.952 375.073 378.704C372.625 377.408 370.681 375.488 369.241 372.944C367.849 370.4 367.153 367.304 367.153 363.656V340.544H373.633V362.792C373.633 366.68 374.617 369.68 376.585 371.792C378.553 373.856 381.241 374.888 384.649 374.888C388.153 374.888 390.913 373.808 392.929 371.648C394.945 369.488 395.953 366.344 395.953 362.216V340.544H402.505Z"/>
<path d="M411.119 360.2C411.119 356.12 411.935 352.568 413.567 349.544C415.199 346.472 417.455 344.096 420.335 342.416C423.263 340.736 426.599 339.896 430.343 339.896C435.191 339.896 439.175 341.072 442.295 343.424C445.463 345.776 447.551 349.04 448.559 353.216H441.503C440.831 350.816 439.511 348.92 437.543 347.528C435.623 346.136 433.223 345.44 430.343 345.44C426.599 345.44 423.575 346.736 421.271 349.328C418.967 351.872 417.815 355.496 417.815 360.2C417.815 364.952 418.967 368.624 421.271 371.216C423.575 373.808 426.599 375.104 430.343 375.104C433.223 375.104 435.623 374.432 437.543 373.088C439.463 371.744 440.783 369.824 441.503 367.328H448.559C447.503 371.36 445.391 374.6 442.223 377.048C439.055 379.448 435.095 380.648 430.343 380.648C426.599 380.648 423.263 379.808 420.335 378.128C417.455 376.448 415.199 374.072 413.567 371C411.935 367.928 411.119 364.328 411.119 360.2Z"/>
<path d="M465.294 345.944V369.2C465.294 371.12 465.702 372.488 466.518 373.304C467.334 374.072 468.75 374.456 470.766 374.456H475.59V380H469.686C466.038 380 463.302 379.16 461.478 377.48C459.654 375.8 458.742 373.04 458.742 369.2V345.944H453.63V340.544H458.742V330.608H465.294V340.544H475.59V345.944H465.294Z"/>
<path d="M497.496 380.648C494.472 380.648 491.76 380.144 489.36 379.136C486.96 378.08 485.064 376.64 483.672 374.816C482.28 372.944 481.512 370.808 481.368 368.408H488.136C488.328 370.376 489.24 371.984 490.872 373.232C492.552 374.48 494.736 375.104 497.424 375.104C499.92 375.104 501.888 374.552 503.328 373.448C504.768 372.344 505.488 370.952 505.488 369.272C505.488 367.544 504.72 366.272 503.184 365.456C501.648 364.592 499.272 363.752 496.056 362.936C493.128 362.168 490.728 361.4 488.856 360.632C487.032 359.816 485.448 358.64 484.104 357.104C482.808 355.52 482.16 353.456 482.16 350.912C482.16 348.896 482.76 347.048 483.96 345.368C485.16 343.688 486.864 342.368 489.072 341.408C491.28 340.4 493.8 339.896 496.632 339.896C501 339.896 504.528 341 507.216 343.208C509.904 345.416 511.344 348.44 511.536 352.28H504.984C504.84 350.216 504 348.56 502.464 347.312C500.976 346.064 498.96 345.44 496.416 345.44C494.064 345.44 492.192 345.944 490.8 346.952C489.408 347.96 488.712 349.28 488.712 350.912C488.712 352.208 489.12 353.288 489.936 354.152C490.8 354.968 491.856 355.64 493.104 356.168C494.4 356.648 496.176 357.2 498.432 357.824C501.264 358.592 503.568 359.36 505.344 360.128C507.12 360.848 508.632 361.952 509.88 363.44C511.176 364.928 511.848 366.872 511.896 369.272C511.896 371.432 511.296 373.376 510.096 375.104C508.896 376.832 507.192 378.2 504.984 379.208C502.824 380.168 500.328 380.648 497.496 380.648Z"/>
<path d="M12.096 437.816V488H5.54401V437.816H12.096Z"/>
<path d="M42.4868 447.824C47.2868 447.824 51.1748 449.288 54.1508 452.216C57.1268 455.096 58.6148 459.272 58.6148 464.744V488H52.1348V465.68C52.1348 461.744 51.1508 458.744 49.1828 456.68C47.2148 454.568 44.5268 453.512 41.1188 453.512C37.6628 453.512 34.9028 454.592 32.8388 456.752C30.8228 458.912 29.8148 462.056 29.8148 466.184V488H23.2628V448.544H29.8148V454.16C31.1108 452.144 32.8628 450.584 35.0708 449.48C37.3268 448.376 39.7988 447.824 42.4868 447.824Z"/>
<path d="M77.3094 453.944V477.2C77.3094 479.12 77.7174 480.488 78.5334 481.304C79.3494 482.072 80.7654 482.456 82.7814 482.456H87.6054V488H81.7014C78.0534 488 75.3174 487.16 73.4934 485.48C71.6694 483.8 70.7574 481.04 70.7574 477.2V453.944H65.6454V448.544H70.7574V438.608H77.3094V448.544H87.6054V453.944H77.3094Z"/>
<path d="M112.752 488.648C109.056 488.648 105.696 487.808 102.672 486.128C99.696 484.448 97.344 482.072 95.616 479C93.936 475.88 93.096 472.28 93.096 468.2C93.096 464.168 93.96 460.616 95.688 457.544C97.464 454.424 99.864 452.048 102.888 450.416C105.912 448.736 109.296 447.896 113.04 447.896C116.784 447.896 120.168 448.736 123.192 450.416C126.216 452.048 128.592 454.4 130.32 457.472C132.096 460.544 132.984 464.12 132.984 468.2C132.984 472.28 132.072 475.88 130.248 479C128.472 482.072 126.048 484.448 122.976 486.128C119.904 487.808 116.496 488.648 112.752 488.648ZM112.752 482.888C115.104 482.888 117.312 482.336 119.376 481.232C121.44 480.128 123.096 478.472 124.344 476.264C125.64 474.056 126.288 471.368 126.288 468.2C126.288 465.032 125.664 462.344 124.416 460.136C123.168 457.928 121.536 456.296 119.52 455.24C117.504 454.136 115.32 453.584 112.968 453.584C110.568 453.584 108.36 454.136 106.344 455.24C104.376 456.296 102.792 457.928 101.592 460.136C100.392 462.344 99.792 465.032 99.792 468.2C99.792 471.416 100.368 474.128 101.52 476.336C102.72 478.544 104.304 480.2 106.272 481.304C108.24 482.36 110.4 482.888 112.752 482.888Z"/>
<path d="M31.968 596L20.016 575.48H12.096V596H5.54401V545.816H21.744C25.536 545.816 28.728 546.464 31.32 547.76C33.96 549.056 35.928 550.808 37.224 553.016C38.52 555.224 39.168 557.744 39.168 560.576C39.168 564.032 38.16 567.08 36.144 569.72C34.176 572.36 31.2 574.112 27.216 574.976L39.816 596H31.968ZM12.096 570.224H21.744C25.296 570.224 27.96 569.36 29.736 567.632C31.512 565.856 32.4 563.504 32.4 560.576C32.4 557.6 31.512 555.296 29.736 553.664C28.008 552.032 25.344 551.216 21.744 551.216H12.096V570.224Z"/>
<path d="M85.3487 574.76C85.3487 576.008 85.2767 577.328 85.1327 578.72H53.5967C53.8367 582.608 55.1567 585.656 57.5567 587.864C60.0047 590.024 62.9567 591.104 66.4127 591.104C69.2447 591.104 71.5967 590.456 73.4687 589.16C75.3887 587.816 76.7327 586.04 77.5007 583.832H84.5567C83.5007 587.624 81.3887 590.72 78.2207 593.12C75.0527 595.472 71.1167 596.648 66.4127 596.648C62.6687 596.648 59.3087 595.808 56.3327 594.128C53.4047 592.448 51.1007 590.072 49.4207 587C47.7407 583.88 46.9007 580.28 46.9007 576.2C46.9007 572.12 47.7167 568.544 49.3487 565.472C50.9807 562.4 53.2607 560.048 56.1887 558.416C59.1647 556.736 62.5727 555.896 66.4127 555.896C70.1567 555.896 73.4687 556.712 76.3487 558.344C79.2287 559.976 81.4367 562.232 82.9727 565.112C84.5567 567.944 85.3487 571.16 85.3487 574.76ZM78.5807 573.392C78.5807 570.896 78.0287 568.76 76.9247 566.984C75.8207 565.16 74.3087 563.792 72.3887 562.88C70.5167 561.92 68.4287 561.44 66.1247 561.44C62.8127 561.44 59.9807 562.496 57.6287 564.608C55.3247 566.72 54.0047 569.648 53.6687 573.392H78.5807Z"/>
<path d="M91.5491 576.128C91.5491 572.096 92.3651 568.568 93.9971 565.544C95.6291 562.472 97.8611 560.096 100.693 558.416C103.573 556.736 106.765 555.896 110.269 555.896C113.725 555.896 116.725 556.64 119.269 558.128C121.813 559.616 123.709 561.488 124.957 563.744V556.544H131.581V596H124.957V588.656C123.661 590.96 121.717 592.88 119.125 594.416C116.581 595.904 113.605 596.648 110.197 596.648C106.693 596.648 103.525 595.784 100.693 594.056C97.8611 592.328 95.6291 589.904 93.9971 586.784C92.3651 583.664 91.5491 580.112 91.5491 576.128ZM124.957 576.2C124.957 573.224 124.357 570.632 123.157 568.424C121.957 566.216 120.325 564.536 118.261 563.384C116.245 562.184 114.013 561.584 111.565 561.584C109.117 561.584 106.885 562.16 104.869 563.312C102.853 564.464 101.245 566.144 100.045 568.352C98.8451 570.56 98.2451 573.152 98.2451 576.128C98.2451 579.152 98.8451 581.792 100.045 584.048C101.245 586.256 102.853 587.96 104.869 589.16C106.885 590.312 109.117 590.888 111.565 590.888C114.013 590.888 116.245 590.312 118.261 589.16C120.325 587.96 121.957 586.256 123.157 584.048C124.357 581.792 124.957 579.176 124.957 576.2Z"/>
<path d="M149.205 542.72V596H142.653V542.72H149.205Z"/>
<path d="M177.119 570.872C177.119 565.976 178.223 561.584 180.431 557.696C182.639 553.76 185.639 550.688 189.431 548.48C193.271 546.272 197.519 545.168 202.175 545.168C207.647 545.168 212.423 546.488 216.503 549.128C220.583 551.768 223.559 555.512 225.431 560.36H217.583C216.191 557.336 214.175 555.008 211.535 553.376C208.943 551.744 205.823 550.928 202.175 550.928C198.671 550.928 195.527 551.744 192.743 553.376C189.959 555.008 187.775 557.336 186.191 560.36C184.607 563.336 183.815 566.84 183.815 570.872C183.815 574.856 184.607 578.36 186.191 581.384C187.775 584.36 189.959 586.664 192.743 588.296C195.527 589.928 198.671 590.744 202.175 590.744C205.823 590.744 208.943 589.952 211.535 588.368C214.175 586.736 216.191 584.408 217.583 581.384H225.431C223.559 586.184 220.583 589.904 216.503 592.544C212.423 595.136 207.647 596.432 202.175 596.432C197.519 596.432 193.271 595.352 189.431 593.192C185.639 590.984 182.639 587.936 180.431 584.048C178.223 580.16 177.119 575.768 177.119 570.872Z"/>
<path d="M232.737 576.128C232.737 572.096 233.553 568.568 235.185 565.544C236.817 562.472 239.049 560.096 241.881 558.416C244.761 556.736 247.953 555.896 251.457 555.896C254.913 555.896 257.913 556.64 260.457 558.128C263.001 559.616 264.897 561.488 266.145 563.744V556.544H272.769V596H266.145V588.656C264.849 590.96 262.905 592.88 260.313 594.416C257.769 595.904 254.793 596.648 251.385 596.648C247.881 596.648 244.713 595.784 241.881 594.056C239.049 592.328 236.817 589.904 235.185 586.784C233.553 583.664 232.737 580.112 232.737 576.128ZM266.145 576.2C266.145 573.224 265.545 570.632 264.345 568.424C263.145 566.216 261.513 564.536 259.449 563.384C257.433 562.184 255.201 561.584 252.753 561.584C250.305 561.584 248.073 562.16 246.057 563.312C244.041 564.464 242.433 566.144 241.233 568.352C240.033 570.56 239.433 573.152 239.433 576.128C239.433 579.152 240.033 581.792 241.233 584.048C242.433 586.256 244.041 587.96 246.057 589.16C248.073 590.312 250.305 590.888 252.753 590.888C255.201 590.888 257.433 590.312 259.449 589.16C261.513 587.96 263.145 586.256 264.345 584.048C265.545 581.792 266.145 579.176 266.145 576.2Z"/>
<path d="M297.809 596.648C294.785 596.648 292.073 596.144 289.673 595.136C287.273 594.08 285.377 592.64 283.985 590.816C282.593 588.944 281.825 586.808 281.681 584.408H288.449C288.641 586.376 289.553 587.984 291.185 589.232C292.865 590.48 295.049 591.104 297.737 591.104C300.233 591.104 302.201 590.552 303.641 589.448C305.081 588.344 305.801 586.952 305.801 585.272C305.801 583.544 305.033 582.272 303.497 581.456C301.961 580.592 299.585 579.752 296.369 578.936C293.441 578.168 291.041 577.4 289.169 576.632C287.345 575.816 285.761 574.64 284.417 573.104C283.121 571.52 282.473 569.456 282.473 566.912C282.473 564.896 283.073 563.048 284.273 561.368C285.473 559.688 287.177 558.368 289.385 557.408C291.593 556.4 294.113 555.896 296.945 555.896C301.313 555.896 304.841 557 307.529 559.208C310.217 561.416 311.657 564.44 311.849 568.28H305.297C305.153 566.216 304.313 564.56 302.777 563.312C301.289 562.064 299.273 561.44 296.729 561.44C294.377 561.44 292.505 561.944 291.113 562.952C289.721 563.96 289.025 565.28 289.025 566.912C289.025 568.208 289.433 569.288 290.249 570.152C291.113 570.968 292.169 571.64 293.417 572.168C294.713 572.648 296.489 573.2 298.745 573.824C301.577 574.592 303.881 575.36 305.657 576.128C307.433 576.848 308.945 577.952 310.193 579.44C311.489 580.928 312.161 582.872 312.209 585.272C312.209 587.432 311.609 589.376 310.409 591.104C309.209 592.832 307.505 594.2 305.297 595.208C303.137 596.168 300.641 596.648 297.809 596.648Z"/>
<path d="M341.042 555.824C344.018 555.824 346.706 556.472 349.106 557.768C351.506 559.016 353.378 560.912 354.722 563.456C356.114 566 356.81 569.096 356.81 572.744V596H350.33V573.68C350.33 569.744 349.346 566.744 347.378 564.68C345.41 562.568 342.722 561.512 339.314 561.512C335.858 561.512 333.098 562.592 331.034 564.752C329.018 566.912 328.01 570.056 328.01 574.184V596H321.458V542.72H328.01V562.16C329.306 560.144 331.082 558.584 333.338 557.48C335.642 556.376 338.21 555.824 341.042 555.824Z"/>
<path d="M28.296 704.504C23.64 704.504 19.392 703.424 15.552 701.264C11.712 699.056 8.66401 696.008 6.40801 692.12C4.20001 688.184 3.09601 683.768 3.09601 678.872C3.09601 673.976 4.20001 669.584 6.40801 665.696C8.66401 661.76 11.712 658.712 15.552 656.552C19.392 654.344 23.64 653.24 28.296 653.24C33 653.24 37.272 654.344 41.112 656.552C44.952 658.712 47.976 661.736 50.184 665.624C52.392 669.512 53.496 673.928 53.496 678.872C53.496 683.816 52.392 688.232 50.184 692.12C47.976 696.008 44.952 699.056 41.112 701.264C37.272 703.424 33 704.504 28.296 704.504ZM28.296 698.816C31.8 698.816 34.944 698 37.728 696.368C40.56 694.736 42.768 692.408 44.352 689.384C45.984 686.36 46.8 682.856 46.8 678.872C46.8 674.84 45.984 671.336 44.352 668.36C42.768 665.336 40.584 663.008 37.8 661.376C35.016 659.744 31.848 658.928 28.296 658.928C24.744 658.928 21.576 659.744 18.792 661.376C16.008 663.008 13.8 665.336 12.168 668.36C10.584 671.336 9.79201 674.84 9.79201 678.872C9.79201 682.856 10.584 686.36 12.168 689.384C13.8 692.408 16.008 694.736 18.792 696.368C21.624 698 24.792 698.816 28.296 698.816Z"/>
<path d="M81.3696 663.824C86.1696 663.824 90.0576 665.288 93.0336 668.216C96.0096 671.096 97.4976 675.272 97.4976 680.744V704H91.0176V681.68C91.0176 677.744 90.0336 674.744 88.0656 672.68C86.0976 670.568 83.4096 669.512 80.0016 669.512C76.5456 669.512 73.7856 670.592 71.7216 672.752C69.7056 674.912 68.6976 678.056 68.6976 682.184V704H62.1456V664.544H68.6976V670.16C69.9936 668.144 71.7456 666.584 73.9536 665.48C76.2096 664.376 78.6816 663.824 81.3696 663.824Z"/>
<path d="M158.284 653.816V659.144H144.604V704H138.052V659.144H124.3V653.816H158.284Z"/>
<path d="M185.933 663.824C188.909 663.824 191.597 664.472 193.997 665.768C196.397 667.016 198.269 668.912 199.613 671.456C201.005 674 201.701 677.096 201.701 680.744V704H195.221V681.68C195.221 677.744 194.237 674.744 192.269 672.68C190.301 670.568 187.613 669.512 184.205 669.512C180.749 669.512 177.989 670.592 175.925 672.752C173.909 674.912 172.901 678.056 172.901 682.184V704H166.349V650.72H172.901V670.16C174.197 668.144 175.973 666.584 178.229 665.48C180.533 664.376 183.101 663.824 185.933 663.824Z"/>
<path d="M248.403 682.76C248.403 684.008 248.331 685.328 248.187 686.72H216.651C216.891 690.608 218.211 693.656 220.611 695.864C223.059 698.024 226.011 699.104 229.467 699.104C232.299 699.104 234.651 698.456 236.523 697.16C238.443 695.816 239.787 694.04 240.555 691.832H247.611C246.555 695.624 244.443 698.72 241.275 701.12C238.107 703.472 234.171 704.648 229.467 704.648C225.723 704.648 222.363 703.808 219.387 702.128C216.459 700.448 214.155 698.072 212.475 695C210.795 691.88 209.955 688.28 209.955 684.2C209.955 680.12 210.771 676.544 212.403 673.472C214.035 670.4 216.315 668.048 219.243 666.416C222.219 664.736 225.627 663.896 229.467 663.896C233.211 663.896 236.523 664.712 239.403 666.344C242.283 667.976 244.491 670.232 246.027 673.112C247.611 675.944 248.403 679.16 248.403 682.76ZM241.635 681.392C241.635 678.896 241.083 676.76 239.979 674.984C238.875 673.16 237.363 671.792 235.443 670.88C233.571 669.92 231.483 669.44 229.179 669.44C225.867 669.44 223.035 670.496 220.683 672.608C218.379 674.72 217.059 677.648 216.723 681.392H241.635Z"/>
<path d="M33.912 761.816V767.144H12.096V784.064H29.808V789.392H12.096V812H5.54401V761.816H33.912Z"/>
<path d="M48.3773 758.72V812H41.8253V758.72H48.3773Z"/>
<path d="M93.528 772.544L69.768 830.576H63L70.776 811.568L54.864 772.544H62.136L74.52 804.512L86.76 772.544H93.528Z"/>
<path d="M102.202 812.432C100.954 812.432 99.8983 812 99.0343 811.136C98.1703 810.272 97.7383 809.216 97.7383 807.968C97.7383 806.72 98.1703 805.664 99.0343 804.8C99.8983 803.936 100.954 803.504 102.202 803.504C103.402 803.504 104.41 803.936 105.226 804.8C106.09 805.664 106.522 806.72 106.522 807.968C106.522 809.216 106.09 810.272 105.226 811.136C104.41 812 103.402 812.432 102.202 812.432Z"/>
<path d="M117.32 812.432C116.072 812.432 115.016 812 114.152 811.136C113.288 810.272 112.856 809.216 112.856 807.968C112.856 806.72 113.288 805.664 114.152 804.8C115.016 803.936 116.072 803.504 117.32 803.504C118.52 803.504 119.528 803.936 120.344 804.8C121.208 805.664 121.64 806.72 121.64 807.968C121.64 809.216 121.208 810.272 120.344 811.136C119.528 812 118.52 812.432 117.32 812.432Z"/>
<path d="M132.437 812.432C131.189 812.432 130.133 812 129.269 811.136C128.405 810.272 127.973 809.216 127.973 807.968C127.973 806.72 128.405 805.664 129.269 804.8C130.133 803.936 131.189 803.504 132.437 803.504C133.637 803.504 134.645 803.936 135.461 804.8C136.325 805.664 136.757 806.72 136.757 807.968C136.757 809.216 136.325 810.272 135.461 811.136C134.645 812 133.637 812.432 132.437 812.432Z"/>
</mask>
<path d="M68.616 5.81601L54.072 56H46.728L35.064 15.608L22.968 56L15.696 56.072L1.65601 5.81601H8.64001L19.584 48.368L31.68 5.81601H39.024L50.544 48.224L61.56 5.81601H68.616Z" stroke="white" stroke-width="2" mask="url(#path-1-outside-1)"/>
<path d="M79.1702 10.136C77.9222 10.136 76.8662 9.70401 76.0022 8.84001C75.1382 7.97601 74.7062 6.92001 74.7062 5.67201C74.7062 4.42401 75.1382 3.36801 76.0022 2.50401C76.8662 1.64001 77.9222 1.20801 79.1702 1.20801C80.3702 1.20801 81.3782 1.64001 82.1942 2.50401C83.0582 3.36801 83.4902 4.42401 83.4902 5.67201C83.4902 6.92001 83.0582 7.97601 82.1942 8.84001C81.3782 9.70401 80.3702 10.136 79.1702 10.136ZM82.3382 16.544V56H75.7862V16.544H82.3382Z" stroke="white" stroke-width="2" mask="url(#path-1-outside-1)"/>
<path d="M101.497 21.944V45.2C101.497 47.12 101.905 48.488 102.721 49.304C103.537 50.072 104.953 50.456 106.969 50.456H111.793V56H105.889C102.241 56 99.5049 55.16 97.6809 53.48C95.8569 51.8 94.9449 49.04 94.9449 45.2V21.944H89.8329V16.544H94.9449V6.60801H101.497V16.544H111.793V21.944H101.497Z" stroke="white" stroke-width="2" mask="url(#path-1-outside-1)"/>
<path d="M139.316 15.824C142.292 15.824 144.98 16.472 147.38 17.768C149.78 19.016 151.651 20.912 152.995 23.456C154.387 26 155.083 29.096 155.083 32.744V56H148.604V33.68C148.604 29.744 147.62 26.744 145.652 24.68C143.684 22.568 140.995 21.512 137.587 21.512C134.131 21.512 131.372 22.592 129.308 24.752C127.292 26.912 126.284 30.056 126.284 34.184V56H119.732V2.72001H126.284V22.16C127.58 20.144 129.355 18.584 131.611 17.48C133.915 16.376 136.484 15.824 139.316 15.824Z" stroke="white" stroke-width="2" mask="url(#path-1-outside-1)"/>
<path d="M30.816 113.816V150.896C30.816 155.024 29.544 158.336 27 160.832C24.456 163.28 21.096 164.504 16.92 164.504C12.696 164.504 9.31201 163.256 6.76801 160.76C4.22401 158.216 2.95201 154.76 2.95201 150.392H9.50401C9.55201 152.84 10.176 154.832 11.376 156.368C12.624 157.904 14.472 158.672 16.92 158.672C19.368 158.672 21.192 157.952 22.392 156.512C23.592 155.024 24.192 153.152 24.192 150.896V113.816H30.816Z" stroke="white" stroke-width="2" mask="url(#path-1-outside-1)"/>
<path d="M60.9317 164.648C57.2357 164.648 53.8757 163.808 50.8517 162.128C47.8757 160.448 45.5237 158.072 43.7957 155C42.1157 151.88 41.2757 148.28 41.2757 144.2C41.2757 140.168 42.1397 136.616 43.8677 133.544C45.6437 130.424 48.0437 128.048 51.0677 126.416C54.0917 124.736 57.4757 123.896 61.2197 123.896C64.9637 123.896 68.3477 124.736 71.3717 126.416C74.3957 128.048 76.7717 130.4 78.4997 133.472C80.2757 136.544 81.1637 140.12 81.1637 144.2C81.1637 148.28 80.2517 151.88 78.4277 155C76.6517 158.072 74.2277 160.448 71.1557 162.128C68.0837 163.808 64.6757 164.648 60.9317 164.648ZM60.9317 158.888C63.2837 158.888 65.4917 158.336 67.5557 157.232C69.6197 156.128 71.2757 154.472 72.5237 152.264C73.8197 150.056 74.4677 147.368 74.4677 144.2C74.4677 141.032 73.8437 138.344 72.5957 136.136C71.3477 133.928 69.7157 132.296 67.6997 131.24C65.6837 130.136 63.4997 129.584 61.1477 129.584C58.7477 129.584 56.5397 130.136 54.5237 131.24C52.5557 132.296 50.9717 133.928 49.7717 136.136C48.5717 138.344 47.9717 141.032 47.9717 144.2C47.9717 147.416 48.5477 150.128 49.6997 152.336C50.8997 154.544 52.4837 156.2 54.4517 157.304C56.4197 158.36 58.5797 158.888 60.9317 158.888Z" stroke="white" stroke-width="2" mask="url(#path-1-outside-1)"/>
<path d="M97.7704 129.944V153.2C97.7704 155.12 98.1784 156.488 98.9944 157.304C99.8104 158.072 101.226 158.456 103.242 158.456H108.066V164H102.162C98.5144 164 95.7784 163.16 93.9544 161.48C92.1304 159.8 91.2184 157.04 91.2184 153.2V129.944H86.1064V124.544H91.2184V114.608H97.7704V124.544H108.066V129.944H97.7704Z" stroke="white" stroke-width="2" mask="url(#path-1-outside-1)"/>
<path d="M119.389 118.136C118.141 118.136 117.085 117.704 116.221 116.84C115.357 115.976 114.925 114.92 114.925 113.672C114.925 112.424 115.357 111.368 116.221 110.504C117.085 109.64 118.141 109.208 119.389 109.208C120.589 109.208 121.597 109.64 122.413 110.504C123.277 111.368 123.709 112.424 123.709 113.672C123.709 114.92 123.277 115.976 122.413 116.84C121.597 117.704 120.589 118.136 119.389 118.136ZM122.557 124.544V164H116.005V124.544H122.557Z" stroke="white" stroke-width="2" mask="url(#path-1-outside-1)"/>
<path d="M131.276 144.128C131.276 140.096 132.092 136.568 133.724 133.544C135.356 130.472 137.588 128.096 140.42 126.416C143.3 124.736 146.492 123.896 149.996 123.896C153.452 123.896 156.452 124.64 158.996 126.128C161.54 127.616 163.436 129.488 164.684 131.744V124.544H171.308V164H164.684V156.656C163.388 158.96 161.444 160.88 158.852 162.416C156.308 163.904 153.332 164.648 149.924 164.648C146.42 164.648 143.252 163.784 140.42 162.056C137.588 160.328 135.356 157.904 133.724 154.784C132.092 151.664 131.276 148.112 131.276 144.128ZM164.684 144.2C164.684 141.224 164.084 138.632 162.884 136.424C161.684 134.216 160.052 132.536 157.988 131.384C155.972 130.184 153.74 129.584 151.292 129.584C148.844 129.584 146.612 130.16 144.596 131.312C142.58 132.464 140.972 134.144 139.772 136.352C138.572 138.56 137.972 141.152 137.972 144.128C137.972 147.152 138.572 149.792 139.772 152.048C140.972 154.256 142.58 155.96 144.596 157.16C146.612 158.312 148.844 158.888 151.292 158.888C153.74 158.888 155.972 158.312 157.988 157.16C160.052 155.96 161.684 154.256 162.884 152.048C164.084 149.792 164.684 147.176 164.684 144.2Z" stroke="white" stroke-width="2" mask="url(#path-1-outside-1)"/>
<path d="M198.292 164.504C194.98 164.504 192.004 163.928 189.364 162.776C186.772 161.576 184.732 159.944 183.244 157.88C181.756 155.768 180.988 153.344 180.94 150.608H187.924C188.164 152.96 189.124 154.952 190.804 156.584C192.532 158.168 195.028 158.96 198.292 158.96C201.412 158.96 203.86 158.192 205.636 156.656C207.46 155.072 208.372 153.056 208.372 150.608C208.372 148.688 207.844 147.128 206.788 145.928C205.732 144.728 204.412 143.816 202.828 143.192C201.244 142.568 199.108 141.896 196.42 141.176C193.108 140.312 190.444 139.448 188.428 138.584C186.46 137.72 184.756 136.376 183.316 134.552C181.924 132.68 181.228 130.184 181.228 127.064C181.228 124.328 181.924 121.904 183.316 119.792C184.708 117.68 186.652 116.048 189.148 114.896C191.692 113.744 194.596 113.168 197.86 113.168C202.564 113.168 206.404 114.344 209.38 116.696C212.404 119.048 214.108 122.168 214.492 126.056H207.292C207.052 124.136 206.044 122.456 204.268 121.016C202.492 119.528 200.14 118.784 197.212 118.784C194.476 118.784 192.244 119.504 190.516 120.944C188.788 122.336 187.924 124.304 187.924 126.848C187.924 128.672 188.428 130.16 189.436 131.312C190.492 132.464 191.764 133.352 193.252 133.976C194.788 134.552 196.924 135.224 199.66 135.992C202.972 136.904 205.636 137.816 207.652 138.728C209.668 139.592 211.396 140.96 212.836 142.832C214.276 144.656 214.996 147.152 214.996 150.32C214.996 152.768 214.348 155.072 213.052 157.232C211.756 159.392 209.836 161.144 207.292 162.488C204.748 163.832 201.748 164.504 198.292 164.504Z" stroke="white" stroke-width="2" mask="url(#path-1-outside-1)"/>
<path d="M231.19 131.816C232.486 129.56 234.406 127.688 236.95 126.2C239.542 124.664 242.542 123.896 245.95 123.896C249.454 123.896 252.622 124.736 255.454 126.416C258.334 128.096 260.59 130.472 262.222 133.544C263.854 136.568 264.67 140.096 264.67 144.128C264.67 148.112 263.854 151.664 262.222 154.784C260.59 157.904 258.334 160.328 255.454 162.056C252.622 163.784 249.454 164.648 245.95 164.648C242.59 164.648 239.614 163.904 237.022 162.416C234.478 160.88 232.534 158.984 231.19 156.728V182.72H224.638V124.544H231.19V131.816ZM257.974 144.128C257.974 141.152 257.374 138.56 256.174 136.352C254.974 134.144 253.342 132.464 251.278 131.312C249.262 130.16 247.03 129.584 244.582 129.584C242.182 129.584 239.95 130.184 237.886 131.384C235.87 132.536 234.238 134.24 232.99 136.496C231.79 138.704 231.19 141.272 231.19 144.2C231.19 147.176 231.79 149.792 232.99 152.048C234.238 154.256 235.87 155.96 237.886 157.16C239.95 158.312 242.182 158.888 244.582 158.888C247.03 158.888 249.262 158.312 251.278 157.16C253.342 155.96 254.974 154.256 256.174 152.048C257.374 149.792 257.974 147.152 257.974 144.128Z" stroke="white" stroke-width="2" mask="url(#path-1-outside-1)"/>
<path d="M270.846 144.128C270.846 140.096 271.662 136.568 273.294 133.544C274.926 130.472 277.158 128.096 279.99 126.416C282.87 124.736 286.062 123.896 289.566 123.896C293.022 123.896 296.022 124.64 298.566 126.128C301.11 127.616 303.006 129.488 304.254 131.744V124.544H310.878V164H304.254V156.656C302.958 158.96 301.014 160.88 298.422 162.416C295.878 163.904 292.902 164.648 289.494 164.648C285.99 164.648 282.822 163.784 279.99 162.056C277.158 160.328 274.926 157.904 273.294 154.784C271.662 151.664 270.846 148.112 270.846 144.128ZM304.254 144.2C304.254 141.224 303.654 138.632 302.454 136.424C301.254 134.216 299.622 132.536 297.558 131.384C295.542 130.184 293.31 129.584 290.862 129.584C288.414 129.584 286.182 130.16 284.166 131.312C282.15 132.464 280.542 134.144 279.342 136.352C278.142 138.56 277.542 141.152 277.542 144.128C277.542 147.152 278.142 149.792 279.342 152.048C280.542 154.256 282.15 155.96 284.166 157.16C286.182 158.312 288.414 158.888 290.862 158.888C293.31 158.888 295.542 158.312 297.558 157.16C299.622 155.96 301.254 154.256 302.454 152.048C303.654 149.792 304.254 147.176 304.254 144.2Z" stroke="white" stroke-width="2" mask="url(#path-1-outside-1)"/>
<path d="M319.502 144.2C319.502 140.12 320.318 136.568 321.95 133.544C323.582 130.472 325.838 128.096 328.718 126.416C331.646 124.736 334.982 123.896 338.726 123.896C343.574 123.896 347.558 125.072 350.678 127.424C353.846 129.776 355.934 133.04 356.942 137.216H349.886C349.214 134.816 347.894 132.92 345.926 131.528C344.006 130.136 341.606 129.44 338.726 129.44C334.982 129.44 331.958 130.736 329.654 133.328C327.35 135.872 326.198 139.496 326.198 144.2C326.198 148.952 327.35 152.624 329.654 155.216C331.958 157.808 334.982 159.104 338.726 159.104C341.606 159.104 344.006 158.432 345.926 157.088C347.846 155.744 349.166 153.824 349.886 151.328H356.942C355.886 155.36 353.774 158.6 350.606 161.048C347.438 163.448 343.478 164.648 338.726 164.648C334.982 164.648 331.646 163.808 328.718 162.128C325.838 160.448 323.582 158.072 321.95 155C320.318 151.928 319.502 148.328 319.502 144.2Z" stroke="white" stroke-width="2" mask="url(#path-1-outside-1)"/>
<path d="M401.685 142.76C401.685 144.008 401.613 145.328 401.469 146.72H369.933C370.173 150.608 371.493 153.656 373.893 155.864C376.341 158.024 379.293 159.104 382.749 159.104C385.581 159.104 387.933 158.456 389.805 157.16C391.725 155.816 393.069 154.04 393.837 151.832H400.893C399.837 155.624 397.725 158.72 394.557 161.12C391.389 163.472 387.453 164.648 382.749 164.648C379.005 164.648 375.645 163.808 372.669 162.128C369.741 160.448 367.437 158.072 365.757 155C364.077 151.88 363.237 148.28 363.237 144.2C363.237 140.12 364.053 136.544 365.685 133.472C367.317 130.4 369.597 128.048 372.525 126.416C375.501 124.736 378.909 123.896 382.749 123.896C386.493 123.896 389.805 124.712 392.685 126.344C395.565 127.976 397.773 130.232 399.309 133.112C400.893 135.944 401.685 139.16 401.685 142.76ZM394.917 141.392C394.917 138.896 394.365 136.76 393.261 134.984C392.157 133.16 390.645 131.792 388.725 130.88C386.853 129.92 384.765 129.44 382.461 129.44C379.149 129.44 376.317 130.496 373.965 132.608C371.661 134.72 370.341 137.648 370.005 141.392H394.917Z" stroke="white" stroke-width="2" mask="url(#path-1-outside-1)"/>
<path d="M417.101 154.928L409.037 174.296H404.645L409.901 154.928H417.101Z" stroke="white" stroke-width="2" mask="url(#path-1-outside-1)"/>
<path d="M68.616 221.816L54.072 272H46.728L35.064 231.608L22.968 272L15.696 272.072L1.65601 221.816H8.64001L19.584 264.368L31.68 221.816H39.024L50.544 264.224L61.56 221.816H68.616Z" stroke="white" stroke-width="2" mask="url(#path-1-outside-1)"/>
<path d="M111.786 250.76C111.786 252.008 111.714 253.328 111.57 254.72H80.0342C80.2742 258.608 81.5942 261.656 83.9942 263.864C86.4422 266.024 89.3942 267.104 92.8502 267.104C95.6822 267.104 98.0342 266.456 99.9062 265.16C101.826 263.816 103.17 262.04 103.938 259.832H110.994C109.938 263.624 107.826 266.72 104.658 269.12C101.49 271.472 97.5542 272.648 92.8502 272.648C89.1062 272.648 85.7462 271.808 82.7702 270.128C79.8422 268.448 77.5382 266.072 75.8582 263C74.1782 259.88 73.3382 256.28 73.3382 252.2C73.3382 248.12 74.1542 244.544 75.7862 241.472C77.4182 238.4 79.6982 236.048 82.6262 234.416C85.6022 232.736 89.0102 231.896 92.8502 231.896C96.5942 231.896 99.9062 232.712 102.786 234.344C105.666 235.976 107.874 238.232 109.41 241.112C110.994 243.944 111.786 247.16 111.786 250.76ZM105.018 249.392C105.018 246.896 104.466 244.76 103.362 242.984C102.258 241.16 100.746 239.792 98.8262 238.88C96.9542 237.92 94.8662 237.44 92.5622 237.44C89.2502 237.44 86.4182 238.496 84.0662 240.608C81.7622 242.72 80.4422 245.648 80.1062 249.392H105.018Z" stroke="white" stroke-width="2" mask="url(#path-1-outside-1)"/>
<path d="M170.518 221.816V227.144H156.838V272H150.286V227.144H136.534V221.816H170.518Z" stroke="white" stroke-width="2" mask="url(#path-1-outside-1)"/>
<path d="M213.575 232.544V272H207.023V266.168C205.775 268.184 204.023 269.768 201.767 270.92C199.559 272.024 197.111 272.576 194.423 272.576C191.351 272.576 188.591 271.952 186.143 270.704C183.695 269.408 181.751 267.488 180.311 264.944C178.919 262.4 178.223 259.304 178.223 255.656V232.544H184.703V254.792C184.703 258.68 185.687 261.68 187.655 263.792C189.623 265.856 192.311 266.888 195.719 266.888C199.223 266.888 201.983 265.808 203.999 263.648C206.015 261.488 207.023 258.344 207.023 254.216V232.544H213.575Z" stroke="white" stroke-width="2" mask="url(#path-1-outside-1)"/>
<path d="M231.19 238.952C232.342 236.696 233.974 234.944 236.086 233.696C238.246 232.448 240.862 231.824 243.934 231.824V238.592H242.206C234.862 238.592 231.19 242.576 231.19 250.544V272H224.638V232.544H231.19V238.952Z" stroke="white" stroke-width="2" mask="url(#path-1-outside-1)"/>
<path d="M270.721 231.824C275.521 231.824 279.409 233.288 282.385 236.216C285.361 239.096 286.849 243.272 286.849 248.744V272H280.369V249.68C280.369 245.744 279.385 242.744 277.417 240.68C275.449 238.568 272.761 237.512 269.353 237.512C265.897 237.512 263.137 238.592 261.073 240.752C259.057 242.912 258.049 246.056 258.049 250.184V272H251.497V232.544H258.049V238.16C259.345 236.144 261.097 234.584 263.305 233.48C265.561 232.376 268.033 231.824 270.721 231.824Z" stroke="white" stroke-width="2" mask="url(#path-1-outside-1)"/>
<path d="M11.952 329.816V361.568C11.952 366.032 13.032 369.344 15.192 371.504C17.4 373.664 20.448 374.744 24.336 374.744C28.176 374.744 31.176 373.664 33.336 371.504C35.544 369.344 36.648 366.032 36.648 361.568V329.816H43.2V361.496C43.2 365.672 42.36 369.2 40.68 372.08C39 374.912 36.72 377.024 33.84 378.416C31.008 379.808 27.816 380.504 24.264 380.504C20.712 380.504 17.496 379.808 14.616 378.416C11.784 377.024 9.52801 374.912 7.84801 372.08C6.21601 369.2 5.40001 365.672 5.40001 361.496V329.816H11.952Z" stroke="white" stroke-width="2" mask="url(#path-1-outside-1)"/>
<path d="M68.0979 380.648C65.0739 380.648 62.3619 380.144 59.9619 379.136C57.5619 378.08 55.6659 376.64 54.2739 374.816C52.8819 372.944 52.1139 370.808 51.9699 368.408H58.7379C58.9299 370.376 59.8419 371.984 61.4739 373.232C63.1539 374.48 65.3379 375.104 68.0259 375.104C70.5219 375.104 72.4899 374.552 73.9299 373.448C75.3699 372.344 76.09 370.952 76.09 369.272C76.09 367.544 75.3219 366.272 73.7859 365.456C72.2499 364.592 69.8739 363.752 66.6579 362.936C63.7299 362.168 61.3299 361.4 59.4579 360.632C57.6339 359.816 56.0499 358.64 54.7059 357.104C53.4099 355.52 52.7619 353.456 52.7619 350.912C52.7619 348.896 53.3619 347.048 54.5619 345.368C55.7619 343.688 57.4659 342.368 59.6739 341.408C61.8819 340.4 64.4019 339.896 67.2339 339.896C71.6019 339.896 75.1299 341 77.8179 343.208C80.5059 345.416 81.9459 348.44 82.1379 352.28H75.5859C75.4419 350.216 74.6019 348.56 73.0659 347.312C71.5779 346.064 69.5619 345.44 67.0179 345.44C64.6659 345.44 62.7939 345.944 61.4019 346.952C60.0099 347.96 59.3139 349.28 59.3139 350.912C59.3139 352.208 59.7219 353.288 60.5379 354.152C61.4019 354.968 62.4579 355.64 63.7059 356.168C65.0019 356.648 66.7779 357.2 69.0339 357.824C71.8659 358.592 74.1699 359.36 75.9459 360.128C77.7219 360.848 79.2339 361.952 80.4819 363.44C81.7779 364.928 82.4499 366.872 82.4979 369.272C82.4979 371.432 81.8979 373.376 80.6979 375.104C79.4979 376.832 77.7939 378.2 75.5859 379.208C73.4259 380.168 70.9299 380.648 68.0979 380.648Z" stroke="white" stroke-width="2" mask="url(#path-1-outside-1)"/>
<path d="M127.747 358.76C127.747 360.008 127.675 361.328 127.531 362.72H95.9951C96.2351 366.608 97.5551 369.656 99.9551 371.864C102.403 374.024 105.355 375.104 108.811 375.104C111.643 375.104 113.995 374.456 115.867 373.16C117.787 371.816 119.131 370.04 119.899 367.832H126.955C125.899 371.624 123.787 374.72 120.619 377.12C117.451 379.472 113.515 380.648 108.811 380.648C105.067 380.648 101.707 379.808 98.7311 378.128C95.8031 376.448 93.4991 374.072 91.8191 371C90.1391 367.88 89.2991 364.28 89.2991 360.2C89.2991 356.12 90.1151 352.544 91.7471 349.472C93.3791 346.4 95.6591 344.048 98.5871 342.416C101.563 340.736 104.971 339.896 108.811 339.896C112.555 339.896 115.867 340.712 118.747 342.344C121.627 343.976 123.835 346.232 125.371 349.112C126.955 351.944 127.747 355.16 127.747 358.76ZM120.979 357.392C120.979 354.896 120.427 352.76 119.323 350.984C118.219 349.16 116.707 347.792 114.787 346.88C112.915 345.92 110.827 345.44 108.523 345.44C105.211 345.44 102.379 346.496 100.027 348.608C97.7231 350.72 96.4031 353.648 96.0671 357.392H120.979Z" stroke="white" stroke-width="2" mask="url(#path-1-outside-1)"/>
<path d="M133.948 360.128C133.948 356.096 134.764 352.568 136.396 349.544C138.028 346.472 140.26 344.096 143.092 342.416C145.972 340.736 149.188 339.896 152.74 339.896C155.812 339.896 158.668 340.616 161.308 342.056C163.948 343.448 165.964 345.296 167.356 347.6V326.72H173.98V380H167.356V372.584C166.06 374.936 164.14 376.88 161.596 378.416C159.052 379.904 156.076 380.648 152.668 380.648C149.164 380.648 145.972 379.784 143.092 378.056C140.26 376.328 138.028 373.904 136.396 370.784C134.764 367.664 133.948 364.112 133.948 360.128ZM167.356 360.2C167.356 357.224 166.756 354.632 165.556 352.424C164.356 350.216 162.724 348.536 160.66 347.384C158.644 346.184 156.412 345.584 153.964 345.584C151.516 345.584 149.284 346.16 147.268 347.312C145.252 348.464 143.644 350.144 142.444 352.352C141.244 354.56 140.644 357.152 140.644 360.128C140.644 363.152 141.244 365.792 142.444 368.048C143.644 370.256 145.252 371.96 147.268 373.16C149.284 374.312 151.516 374.888 153.964 374.888C156.412 374.888 158.644 374.312 160.66 373.16C162.724 371.96 164.356 370.256 165.556 368.048C166.756 365.792 167.356 363.176 167.356 360.2Z" stroke="white" stroke-width="2" mask="url(#path-1-outside-1)"/>
<path d="M237.799 344.504C237.799 348.68 236.359 352.16 233.479 354.944C230.647 357.68 226.303 359.048 220.447 359.048H210.799V380H204.247V329.816H220.447C226.111 329.816 230.407 331.184 233.335 333.92C236.311 336.656 237.799 340.184 237.799 344.504ZM220.447 353.648C224.095 353.648 226.783 352.856 228.511 351.272C230.239 349.688 231.103 347.432 231.103 344.504C231.103 338.312 227.551 335.216 220.447 335.216H210.799V353.648H220.447Z" stroke="white" stroke-width="2" mask="url(#path-1-outside-1)"/>
<path d="M252.494 346.952C253.646 344.696 255.278 342.944 257.39 341.696C259.55 340.448 262.166 339.824 265.238 339.824V346.592H263.51C256.166 346.592 252.494 350.576 252.494 358.544V380H245.942V340.544H252.494V346.952Z" stroke="white" stroke-width="2" mask="url(#path-1-outside-1)"/>
<path d="M290.01 380.648C286.314 380.648 282.954 379.808 279.93 378.128C276.954 376.448 274.602 374.072 272.874 371C271.194 367.88 270.354 364.28 270.354 360.2C270.354 356.168 271.218 352.616 272.946 349.544C274.722 346.424 277.122 344.048 280.146 342.416C283.17 340.736 286.554 339.896 290.298 339.896C294.042 339.896 297.426 340.736 300.45 342.416C303.474 344.048 305.85 346.4 307.578 349.472C309.354 352.544 310.242 356.12 310.242 360.2C310.242 364.28 309.33 367.88 307.506 371C305.73 374.072 303.306 376.448 300.234 378.128C297.162 379.808 293.754 380.648 290.01 380.648ZM290.01 374.888C292.362 374.888 294.57 374.336 296.634 373.232C298.698 372.128 300.354 370.472 301.602 368.264C302.898 366.056 303.546 363.368 303.546 360.2C303.546 357.032 302.922 354.344 301.674 352.136C300.426 349.928 298.794 348.296 296.778 347.24C294.762 346.136 292.578 345.584 290.226 345.584C287.826 345.584 285.618 346.136 283.602 347.24C281.634 348.296 280.05 349.928 278.85 352.136C277.65 354.344 277.05 357.032 277.05 360.2C277.05 363.416 277.626 366.128 278.778 368.336C279.978 370.544 281.562 372.2 283.53 373.304C285.498 374.36 287.658 374.888 290.01 374.888Z" stroke="white" stroke-width="2" mask="url(#path-1-outside-1)"/>
<path d="M316.409 360.128C316.409 356.096 317.225 352.568 318.857 349.544C320.489 346.472 322.72 344.096 325.552 342.416C328.432 340.736 331.648 339.896 335.201 339.896C338.273 339.896 341.128 340.616 343.768 342.056C346.408 343.448 348.424 345.296 349.816 347.6V326.72H356.44V380H349.816V372.584C348.52 374.936 346.6 376.88 344.056 378.416C341.512 379.904 338.537 380.648 335.129 380.648C331.625 380.648 328.432 379.784 325.552 378.056C322.72 376.328 320.489 373.904 318.857 370.784C317.225 367.664 316.409 364.112 316.409 360.128ZM349.816 360.2C349.816 357.224 349.217 354.632 348.017 352.424C346.817 350.216 345.185 348.536 343.121 347.384C341.105 346.184 338.872 345.584 336.424 345.584C333.976 345.584 331.745 346.16 329.729 347.312C327.713 348.464 326.105 350.144 324.905 352.352C323.705 354.56 323.104 357.152 323.104 360.128C323.104 363.152 323.705 365.792 324.905 368.048C326.105 370.256 327.713 371.96 329.729 373.16C331.745 374.312 333.976 374.888 336.424 374.888C338.872 374.888 341.105 374.312 343.121 373.16C345.185 371.96 346.817 370.256 348.017 368.048C349.217 365.792 349.816 363.176 349.816 360.2Z" stroke="white" stroke-width="2" mask="url(#path-1-outside-1)"/>
<path d="M402.505 340.544V380H395.953V374.168C394.705 376.184 392.953 377.768 390.697 378.92C388.489 380.024 386.041 380.576 383.353 380.576C380.281 380.576 377.521 379.952 375.073 378.704C372.625 377.408 370.681 375.488 369.241 372.944C367.849 370.4 367.153 367.304 367.153 363.656V340.544H373.633V362.792C373.633 366.68 374.617 369.68 376.585 371.792C378.553 373.856 381.241 374.888 384.649 374.888C388.153 374.888 390.913 373.808 392.929 371.648C394.945 369.488 395.953 366.344 395.953 362.216V340.544H402.505Z" stroke="white" stroke-width="2" mask="url(#path-1-outside-1)"/>
<path d="M411.119 360.2C411.119 356.12 411.935 352.568 413.567 349.544C415.199 346.472 417.455 344.096 420.335 342.416C423.263 340.736 426.599 339.896 430.343 339.896C435.191 339.896 439.175 341.072 442.295 343.424C445.463 345.776 447.551 349.04 448.559 353.216H441.503C440.831 350.816 439.511 348.92 437.543 347.528C435.623 346.136 433.223 345.44 430.343 345.44C426.599 345.44 423.575 346.736 421.271 349.328C418.967 351.872 417.815 355.496 417.815 360.2C417.815 364.952 418.967 368.624 421.271 371.216C423.575 373.808 426.599 375.104 430.343 375.104C433.223 375.104 435.623 374.432 437.543 373.088C439.463 371.744 440.783 369.824 441.503 367.328H448.559C447.503 371.36 445.391 374.6 442.223 377.048C439.055 379.448 435.095 380.648 430.343 380.648C426.599 380.648 423.263 379.808 420.335 378.128C417.455 376.448 415.199 374.072 413.567 371C411.935 367.928 411.119 364.328 411.119 360.2Z" stroke="white" stroke-width="2" mask="url(#path-1-outside-1)"/>
<path d="M465.294 345.944V369.2C465.294 371.12 465.702 372.488 466.518 373.304C467.334 374.072 468.75 374.456 470.766 374.456H475.59V380H469.686C466.038 380 463.302 379.16 461.478 377.48C459.654 375.8 458.742 373.04 458.742 369.2V345.944H453.63V340.544H458.742V330.608H465.294V340.544H475.59V345.944H465.294Z" stroke="white" stroke-width="2" mask="url(#path-1-outside-1)"/>
<path d="M497.496 380.648C494.472 380.648 491.76 380.144 489.36 379.136C486.96 378.08 485.064 376.64 483.672 374.816C482.28 372.944 481.512 370.808 481.368 368.408H488.136C488.328 370.376 489.24 371.984 490.872 373.232C492.552 374.48 494.736 375.104 497.424 375.104C499.92 375.104 501.888 374.552 503.328 373.448C504.768 372.344 505.488 370.952 505.488 369.272C505.488 367.544 504.72 366.272 503.184 365.456C501.648 364.592 499.272 363.752 496.056 362.936C493.128 362.168 490.728 361.4 488.856 360.632C487.032 359.816 485.448 358.64 484.104 357.104C482.808 355.52 482.16 353.456 482.16 350.912C482.16 348.896 482.76 347.048 483.96 345.368C485.16 343.688 486.864 342.368 489.072 341.408C491.28 340.4 493.8 339.896 496.632 339.896C501 339.896 504.528 341 507.216 343.208C509.904 345.416 511.344 348.44 511.536 352.28H504.984C504.84 350.216 504 348.56 502.464 347.312C500.976 346.064 498.96 345.44 496.416 345.44C494.064 345.44 492.192 345.944 490.8 346.952C489.408 347.96 488.712 349.28 488.712 350.912C488.712 352.208 489.12 353.288 489.936 354.152C490.8 354.968 491.856 355.64 493.104 356.168C494.4 356.648 496.176 357.2 498.432 357.824C501.264 358.592 503.568 359.36 505.344 360.128C507.12 360.848 508.632 361.952 509.88 363.44C511.176 364.928 511.848 366.872 511.896 369.272C511.896 371.432 511.296 373.376 510.096 375.104C508.896 376.832 507.192 378.2 504.984 379.208C502.824 380.168 500.328 380.648 497.496 380.648Z" stroke="white" stroke-width="2" mask="url(#path-1-outside-1)"/>
<path d="M12.096 437.816V488H5.54401V437.816H12.096Z" stroke="white" stroke-width="2" mask="url(#path-1-outside-1)"/>
<path d="M42.4868 447.824C47.2868 447.824 51.1748 449.288 54.1508 452.216C57.1268 455.096 58.6148 459.272 58.6148 464.744V488H52.1348V465.68C52.1348 461.744 51.1508 458.744 49.1828 456.68C47.2148 454.568 44.5268 453.512 41.1188 453.512C37.6628 453.512 34.9028 454.592 32.8388 456.752C30.8228 458.912 29.8148 462.056 29.8148 466.184V488H23.2628V448.544H29.8148V454.16C31.1108 452.144 32.8628 450.584 35.0708 449.48C37.3268 448.376 39.7988 447.824 42.4868 447.824Z" stroke="white" stroke-width="2" mask="url(#path-1-outside-1)"/>
<path d="M77.3094 453.944V477.2C77.3094 479.12 77.7174 480.488 78.5334 481.304C79.3494 482.072 80.7654 482.456 82.7814 482.456H87.6054V488H81.7014C78.0534 488 75.3174 487.16 73.4934 485.48C71.6694 483.8 70.7574 481.04 70.7574 477.2V453.944H65.6454V448.544H70.7574V438.608H77.3094V448.544H87.6054V453.944H77.3094Z" stroke="white" stroke-width="2" mask="url(#path-1-outside-1)"/>
<path d="M112.752 488.648C109.056 488.648 105.696 487.808 102.672 486.128C99.696 484.448 97.344 482.072 95.616 479C93.936 475.88 93.096 472.28 93.096 468.2C93.096 464.168 93.96 460.616 95.688 457.544C97.464 454.424 99.864 452.048 102.888 450.416C105.912 448.736 109.296 447.896 113.04 447.896C116.784 447.896 120.168 448.736 123.192 450.416C126.216 452.048 128.592 454.4 130.32 457.472C132.096 460.544 132.984 464.12 132.984 468.2C132.984 472.28 132.072 475.88 130.248 479C128.472 482.072 126.048 484.448 122.976 486.128C119.904 487.808 116.496 488.648 112.752 488.648ZM112.752 482.888C115.104 482.888 117.312 482.336 119.376 481.232C121.44 480.128 123.096 478.472 124.344 476.264C125.64 474.056 126.288 471.368 126.288 468.2C126.288 465.032 125.664 462.344 124.416 460.136C123.168 457.928 121.536 456.296 119.52 455.24C117.504 454.136 115.32 453.584 112.968 453.584C110.568 453.584 108.36 454.136 106.344 455.24C104.376 456.296 102.792 457.928 101.592 460.136C100.392 462.344 99.792 465.032 99.792 468.2C99.792 471.416 100.368 474.128 101.52 476.336C102.72 478.544 104.304 480.2 106.272 481.304C108.24 482.36 110.4 482.888 112.752 482.888Z" stroke="white" stroke-width="2" mask="url(#path-1-outside-1)"/>
<path d="M31.968 596L20.016 575.48H12.096V596H5.54401V545.816H21.744C25.536 545.816 28.728 546.464 31.32 547.76C33.96 549.056 35.928 550.808 37.224 553.016C38.52 555.224 39.168 557.744 39.168 560.576C39.168 564.032 38.16 567.08 36.144 569.72C34.176 572.36 31.2 574.112 27.216 574.976L39.816 596H31.968ZM12.096 570.224H21.744C25.296 570.224 27.96 569.36 29.736 567.632C31.512 565.856 32.4 563.504 32.4 560.576C32.4 557.6 31.512 555.296 29.736 553.664C28.008 552.032 25.344 551.216 21.744 551.216H12.096V570.224Z" stroke="white" stroke-width="2" mask="url(#path-1-outside-1)"/>
<path d="M85.3487 574.76C85.3487 576.008 85.2767 577.328 85.1327 578.72H53.5967C53.8367 582.608 55.1567 585.656 57.5567 587.864C60.0047 590.024 62.9567 591.104 66.4127 591.104C69.2447 591.104 71.5967 590.456 73.4687 589.16C75.3887 587.816 76.7327 586.04 77.5007 583.832H84.5567C83.5007 587.624 81.3887 590.72 78.2207 593.12C75.0527 595.472 71.1167 596.648 66.4127 596.648C62.6687 596.648 59.3087 595.808 56.3327 594.128C53.4047 592.448 51.1007 590.072 49.4207 587C47.7407 583.88 46.9007 580.28 46.9007 576.2C46.9007 572.12 47.7167 568.544 49.3487 565.472C50.9807 562.4 53.2607 560.048 56.1887 558.416C59.1647 556.736 62.5727 555.896 66.4127 555.896C70.1567 555.896 73.4687 556.712 76.3487 558.344C79.2287 559.976 81.4367 562.232 82.9727 565.112C84.5567 567.944 85.3487 571.16 85.3487 574.76ZM78.5807 573.392C78.5807 570.896 78.0287 568.76 76.9247 566.984C75.8207 565.16 74.3087 563.792 72.3887 562.88C70.5167 561.92 68.4287 561.44 66.1247 561.44C62.8127 561.44 59.9807 562.496 57.6287 564.608C55.3247 566.72 54.0047 569.648 53.6687 573.392H78.5807Z" stroke="white" stroke-width="2" mask="url(#path-1-outside-1)"/>
<path d="M91.5491 576.128C91.5491 572.096 92.3651 568.568 93.9971 565.544C95.6291 562.472 97.8611 560.096 100.693 558.416C103.573 556.736 106.765 555.896 110.269 555.896C113.725 555.896 116.725 556.64 119.269 558.128C121.813 559.616 123.709 561.488 124.957 563.744V556.544H131.581V596H124.957V588.656C123.661 590.96 121.717 592.88 119.125 594.416C116.581 595.904 113.605 596.648 110.197 596.648C106.693 596.648 103.525 595.784 100.693 594.056C97.8611 592.328 95.6291 589.904 93.9971 586.784C92.3651 583.664 91.5491 580.112 91.5491 576.128ZM124.957 576.2C124.957 573.224 124.357 570.632 123.157 568.424C121.957 566.216 120.325 564.536 118.261 563.384C116.245 562.184 114.013 561.584 111.565 561.584C109.117 561.584 106.885 562.16 104.869 563.312C102.853 564.464 101.245 566.144 100.045 568.352C98.8451 570.56 98.2451 573.152 98.2451 576.128C98.2451 579.152 98.8451 581.792 100.045 584.048C101.245 586.256 102.853 587.96 104.869 589.16C106.885 590.312 109.117 590.888 111.565 590.888C114.013 590.888 116.245 590.312 118.261 589.16C120.325 587.96 121.957 586.256 123.157 584.048C124.357 581.792 124.957 579.176 124.957 576.2Z" stroke="white" stroke-width="2" mask="url(#path-1-outside-1)"/>
<path d="M149.205 542.72V596H142.653V542.72H149.205Z" stroke="white" stroke-width="2" mask="url(#path-1-outside-1)"/>
<path d="M177.119 570.872C177.119 565.976 178.223 561.584 180.431 557.696C182.639 553.76 185.639 550.688 189.431 548.48C193.271 546.272 197.519 545.168 202.175 545.168C207.647 545.168 212.423 546.488 216.503 549.128C220.583 551.768 223.559 555.512 225.431 560.36H217.583C216.191 557.336 214.175 555.008 211.535 553.376C208.943 551.744 205.823 550.928 202.175 550.928C198.671 550.928 195.527 551.744 192.743 553.376C189.959 555.008 187.775 557.336 186.191 560.36C184.607 563.336 183.815 566.84 183.815 570.872C183.815 574.856 184.607 578.36 186.191 581.384C187.775 584.36 189.959 586.664 192.743 588.296C195.527 589.928 198.671 590.744 202.175 590.744C205.823 590.744 208.943 589.952 211.535 588.368C214.175 586.736 216.191 584.408 217.583 581.384H225.431C223.559 586.184 220.583 589.904 216.503 592.544C212.423 595.136 207.647 596.432 202.175 596.432C197.519 596.432 193.271 595.352 189.431 593.192C185.639 590.984 182.639 587.936 180.431 584.048C178.223 580.16 177.119 575.768 177.119 570.872Z" stroke="white" stroke-width="2" mask="url(#path-1-outside-1)"/>
<path d="M232.737 576.128C232.737 572.096 233.553 568.568 235.185 565.544C236.817 562.472 239.049 560.096 241.881 558.416C244.761 556.736 247.953 555.896 251.457 555.896C254.913 555.896 257.913 556.64 260.457 558.128C263.001 559.616 264.897 561.488 266.145 563.744V556.544H272.769V596H266.145V588.656C264.849 590.96 262.905 592.88 260.313 594.416C257.769 595.904 254.793 596.648 251.385 596.648C247.881 596.648 244.713 595.784 241.881 594.056C239.049 592.328 236.817 589.904 235.185 586.784C233.553 583.664 232.737 580.112 232.737 576.128ZM266.145 576.2C266.145 573.224 265.545 570.632 264.345 568.424C263.145 566.216 261.513 564.536 259.449 563.384C257.433 562.184 255.201 561.584 252.753 561.584C250.305 561.584 248.073 562.16 246.057 563.312C244.041 564.464 242.433 566.144 241.233 568.352C240.033 570.56 239.433 573.152 239.433 576.128C239.433 579.152 240.033 581.792 241.233 584.048C242.433 586.256 244.041 587.96 246.057 589.16C248.073 590.312 250.305 590.888 252.753 590.888C255.201 590.888 257.433 590.312 259.449 589.16C261.513 587.96 263.145 586.256 264.345 584.048C265.545 581.792 266.145 579.176 266.145 576.2Z" stroke="white" stroke-width="2" mask="url(#path-1-outside-1)"/>
<path d="M297.809 596.648C294.785 596.648 292.073 596.144 289.673 595.136C287.273 594.08 285.377 592.64 283.985 590.816C282.593 588.944 281.825 586.808 281.681 584.408H288.449C288.641 586.376 289.553 587.984 291.185 589.232C292.865 590.48 295.049 591.104 297.737 591.104C300.233 591.104 302.201 590.552 303.641 589.448C305.081 588.344 305.801 586.952 305.801 585.272C305.801 583.544 305.033 582.272 303.497 581.456C301.961 580.592 299.585 579.752 296.369 578.936C293.441 578.168 291.041 577.4 289.169 576.632C287.345 575.816 285.761 574.64 284.417 573.104C283.121 571.52 282.473 569.456 282.473 566.912C282.473 564.896 283.073 563.048 284.273 561.368C285.473 559.688 287.177 558.368 289.385 557.408C291.593 556.4 294.113 555.896 296.945 555.896C301.313 555.896 304.841 557 307.529 559.208C310.217 561.416 311.657 564.44 311.849 568.28H305.297C305.153 566.216 304.313 564.56 302.777 563.312C301.289 562.064 299.273 561.44 296.729 561.44C294.377 561.44 292.505 561.944 291.113 562.952C289.721 563.96 289.025 565.28 289.025 566.912C289.025 568.208 289.433 569.288 290.249 570.152C291.113 570.968 292.169 571.64 293.417 572.168C294.713 572.648 296.489 573.2 298.745 573.824C301.577 574.592 303.881 575.36 305.657 576.128C307.433 576.848 308.945 577.952 310.193 579.44C311.489 580.928 312.161 582.872 312.209 585.272C312.209 587.432 311.609 589.376 310.409 591.104C309.209 592.832 307.505 594.2 305.297 595.208C303.137 596.168 300.641 596.648 297.809 596.648Z" stroke="white" stroke-width="2" mask="url(#path-1-outside-1)"/>
<path d="M341.042 555.824C344.018 555.824 346.706 556.472 349.106 557.768C351.506 559.016 353.378 560.912 354.722 563.456C356.114 566 356.81 569.096 356.81 572.744V596H350.33V573.68C350.33 569.744 349.346 566.744 347.378 564.68C345.41 562.568 342.722 561.512 339.314 561.512C335.858 561.512 333.098 562.592 331.034 564.752C329.018 566.912 328.01 570.056 328.01 574.184V596H321.458V542.72H328.01V562.16C329.306 560.144 331.082 558.584 333.338 557.48C335.642 556.376 338.21 555.824 341.042 555.824Z" stroke="white" stroke-width="2" mask="url(#path-1-outside-1)"/>
<path d="M28.296 704.504C23.64 704.504 19.392 703.424 15.552 701.264C11.712 699.056 8.66401 696.008 6.40801 692.12C4.20001 688.184 3.09601 683.768 3.09601 678.872C3.09601 673.976 4.20001 669.584 6.40801 665.696C8.66401 661.76 11.712 658.712 15.552 656.552C19.392 654.344 23.64 653.24 28.296 653.24C33 653.24 37.272 654.344 41.112 656.552C44.952 658.712 47.976 661.736 50.184 665.624C52.392 669.512 53.496 673.928 53.496 678.872C53.496 683.816 52.392 688.232 50.184 692.12C47.976 696.008 44.952 699.056 41.112 701.264C37.272 703.424 33 704.504 28.296 704.504ZM28.296 698.816C31.8 698.816 34.944 698 37.728 696.368C40.56 694.736 42.768 692.408 44.352 689.384C45.984 686.36 46.8 682.856 46.8 678.872C46.8 674.84 45.984 671.336 44.352 668.36C42.768 665.336 40.584 663.008 37.8 661.376C35.016 659.744 31.848 658.928 28.296 658.928C24.744 658.928 21.576 659.744 18.792 661.376C16.008 663.008 13.8 665.336 12.168 668.36C10.584 671.336 9.79201 674.84 9.79201 678.872C9.79201 682.856 10.584 686.36 12.168 689.384C13.8 692.408 16.008 694.736 18.792 696.368C21.624 698 24.792 698.816 28.296 698.816Z" stroke="white" stroke-width="2" mask="url(#path-1-outside-1)"/>
<path d="M81.3696 663.824C86.1696 663.824 90.0576 665.288 93.0336 668.216C96.0096 671.096 97.4976 675.272 97.4976 680.744V704H91.0176V681.68C91.0176 677.744 90.0336 674.744 88.0656 672.68C86.0976 670.568 83.4096 669.512 80.0016 669.512C76.5456 669.512 73.7856 670.592 71.7216 672.752C69.7056 674.912 68.6976 678.056 68.6976 682.184V704H62.1456V664.544H68.6976V670.16C69.9936 668.144 71.7456 666.584 73.9536 665.48C76.2096 664.376 78.6816 663.824 81.3696 663.824Z" stroke="white" stroke-width="2" mask="url(#path-1-outside-1)"/>
<path d="M158.284 653.816V659.144H144.604V704H138.052V659.144H124.3V653.816H158.284Z" stroke="white" stroke-width="2" mask="url(#path-1-outside-1)"/>
<path d="M185.933 663.824C188.909 663.824 191.597 664.472 193.997 665.768C196.397 667.016 198.269 668.912 199.613 671.456C201.005 674 201.701 677.096 201.701 680.744V704H195.221V681.68C195.221 677.744 194.237 674.744 192.269 672.68C190.301 670.568 187.613 669.512 184.205 669.512C180.749 669.512 177.989 670.592 175.925 672.752C173.909 674.912 172.901 678.056 172.901 682.184V704H166.349V650.72H172.901V670.16C174.197 668.144 175.973 666.584 178.229 665.48C180.533 664.376 183.101 663.824 185.933 663.824Z" stroke="white" stroke-width="2" mask="url(#path-1-outside-1)"/>
<path d="M248.403 682.76C248.403 684.008 248.331 685.328 248.187 686.72H216.651C216.891 690.608 218.211 693.656 220.611 695.864C223.059 698.024 226.011 699.104 229.467 699.104C232.299 699.104 234.651 698.456 236.523 697.16C238.443 695.816 239.787 694.04 240.555 691.832H247.611C246.555 695.624 244.443 698.72 241.275 701.12C238.107 703.472 234.171 704.648 229.467 704.648C225.723 704.648 222.363 703.808 219.387 702.128C216.459 700.448 214.155 698.072 212.475 695C210.795 691.88 209.955 688.28 209.955 684.2C209.955 680.12 210.771 676.544 212.403 673.472C214.035 670.4 216.315 668.048 219.243 666.416C222.219 664.736 225.627 663.896 229.467 663.896C233.211 663.896 236.523 664.712 239.403 666.344C242.283 667.976 244.491 670.232 246.027 673.112C247.611 675.944 248.403 679.16 248.403 682.76ZM241.635 681.392C241.635 678.896 241.083 676.76 239.979 674.984C238.875 673.16 237.363 671.792 235.443 670.88C233.571 669.92 231.483 669.44 229.179 669.44C225.867 669.44 223.035 670.496 220.683 672.608C218.379 674.72 217.059 677.648 216.723 681.392H241.635Z" stroke="white" stroke-width="2" mask="url(#path-1-outside-1)"/>
<path d="M33.912 761.816V767.144H12.096V784.064H29.808V789.392H12.096V812H5.54401V761.816H33.912Z" stroke="white" stroke-width="2" mask="url(#path-1-outside-1)"/>
<path d="M48.3773 758.72V812H41.8253V758.72H48.3773Z" stroke="white" stroke-width="2" mask="url(#path-1-outside-1)"/>
<path d="M93.528 772.544L69.768 830.576H63L70.776 811.568L54.864 772.544H62.136L74.52 804.512L86.76 772.544H93.528Z" stroke="white" stroke-width="2" mask="url(#path-1-outside-1)"/>
<path d="M102.202 812.432C100.954 812.432 99.8983 812 99.0343 811.136C98.1703 810.272 97.7383 809.216 97.7383 807.968C97.7383 806.72 98.1703 805.664 99.0343 804.8C99.8983 803.936 100.954 803.504 102.202 803.504C103.402 803.504 104.41 803.936 105.226 804.8C106.09 805.664 106.522 806.72 106.522 807.968C106.522 809.216 106.09 810.272 105.226 811.136C104.41 812 103.402 812.432 102.202 812.432Z" stroke="white" stroke-width="2" mask="url(#path-1-outside-1)"/>
<path d="M117.32 812.432C116.072 812.432 115.016 812 114.152 811.136C113.288 810.272 112.856 809.216 112.856 807.968C112.856 806.72 113.288 805.664 114.152 804.8C115.016 803.936 116.072 803.504 117.32 803.504C118.52 803.504 119.528 803.936 120.344 804.8C121.208 805.664 121.64 806.72 121.64 807.968C121.64 809.216 121.208 810.272 120.344 811.136C119.528 812 118.52 812.432 117.32 812.432Z" stroke="white" stroke-width="2" mask="url(#path-1-outside-1)"/>
<path d="M132.437 812.432C131.189 812.432 130.133 812 129.269 811.136C128.405 810.272 127.973 809.216 127.973 807.968C127.973 806.72 128.405 805.664 129.269 804.8C130.133 803.936 131.189 803.504 132.437 803.504C133.637 803.504 134.645 803.936 135.461 804.8C136.325 805.664 136.757 806.72 136.757 807.968C136.757 809.216 136.325 810.272 135.461 811.136C134.645 812 133.637 812.432 132.437 812.432Z" stroke="white" stroke-width="2" mask="url(#path-1-outside-1)"/>
</svg>

